<svg width="25" height="25" viewBox="0 0 25 25" fill="none" xmlns="http://www.w3.org/2000/svg">
<path d="M5.20875 20.0323H8.52188V14.538C8.52188 14.2267 8.62771 13.9657 8.83938 13.7551C9.05105 13.5445 9.31334 13.4391 9.62625 13.4391H14.0438C14.3567 13.4391 14.6189 13.5445 14.8306 13.7551C15.0423 13.9657 15.1481 14.2267 15.1481 14.538V20.0323H18.4613V10.1426L11.835 5.19771L5.20875 10.1426V20.0323ZM3 20.0323V10.1426C3 9.7946 3.07823 9.46494 3.23468 9.1536C3.39113 8.84226 3.60741 8.58586 3.8835 8.3844L10.5098 3.43954C10.8963 3.14651 11.338 3 11.835 3C12.332 3 12.7737 3.14651 13.1602 3.43954L19.7865 8.3844C20.0626 8.58586 20.2789 8.84226 20.4353 9.1536C20.5918 9.46494 20.67 9.7946 20.67 10.1426V20.0323C20.67 20.6367 20.4537 21.154 20.0212 21.5844C19.5886 22.0148 19.0687 22.23 18.4613 22.23H14.0438C13.7308 22.23 13.4686 22.1247 13.2569 21.9141C13.0452 21.7035 12.9394 21.4425 12.9394 21.1311V15.6369H10.7306V21.1311C10.7306 21.4425 10.6248 21.7035 10.4131 21.9141C10.2014 22.1247 9.93916 22.23 9.62625 22.23H5.20875C4.60134 22.23 4.08137 22.0148 3.64882 21.5844C3.21627 21.154 3 20.6367 3 20.0323Z" fill="#C7C7C7"/>
</svg>
