<svg width="25" height="25" viewBox="0 0 25 25" fill="none" xmlns="http://www.w3.org/2000/svg">
<path d="M4.16675 20.6782V10.7884C4.16675 10.4405 4.24497 10.1108 4.40143 9.79947C4.55788 9.48813 4.77415 9.23173 5.05025 9.03027L11.6765 4.08542C12.063 3.79239 12.5048 3.64587 13.0017 3.64587C13.4987 3.64587 13.9405 3.79239 14.327 4.08542L20.9532 9.03027C21.2293 9.23173 21.4456 9.48813 21.6021 9.79947C21.7585 10.1108 21.8367 10.4405 21.8367 10.7884V20.6782C21.8367 21.2825 21.6205 21.7999 21.1879 22.2303C20.7554 22.6607 20.2354 22.8759 19.628 22.8759H16.3149C16.002 22.8759 15.7397 22.7706 15.528 22.56C15.3163 22.3493 15.2105 22.0884 15.2105 21.777V16.2827C15.2105 15.9714 15.1047 15.7104 14.893 15.4998C14.6813 15.2892 14.419 15.1839 14.1061 15.1839H11.8974C11.5845 15.1839 11.3222 15.2892 11.1105 15.4998C10.8988 15.7104 10.793 15.9714 10.793 16.2827V21.777C10.793 22.0884 10.6872 22.3493 10.4755 22.56C10.2638 22.7706 10.0015 22.8759 9.68862 22.8759H6.3755C5.76809 22.8759 5.24812 22.6607 4.81557 22.2303C4.38302 21.7999 4.16675 21.2825 4.16675 20.6782Z" fill="#D3E97A"/>
</svg>
