<svg width="25" height="25" viewBox="0 0 25 25" fill="none" xmlns="http://www.w3.org/2000/svg">
<path d="M5.966 19.8057L3.68555 22.0778C3.37158 22.3906 3.01216 22.4606 2.60729 22.2877C2.20243 22.1148 2 21.8061 2 21.3616V5.97571C2 5.43239 2.19417 4.96728 2.58251 4.58037C2.97084 4.19346 3.43768 4 3.983 4H19.847C20.3923 4 20.8592 4.19346 21.2475 4.58037C21.6358 4.96728 21.83 5.43239 21.83 5.97571V17.83C21.83 18.3733 21.6358 18.8384 21.2475 19.2253C20.8592 19.6123 20.3923 19.8057 19.847 19.8057H5.966ZM5.12323 17.83H19.847V5.97571H3.983V18.9413L5.12323 17.83ZM6.9575 15.8543H12.9065C13.1874 15.8543 13.4229 15.7596 13.6129 15.5703C13.803 15.3809 13.898 15.1463 13.898 14.8664C13.898 14.5865 13.803 14.3519 13.6129 14.1626C13.4229 13.9732 13.1874 13.8786 12.9065 13.8786H6.9575C6.67658 13.8786 6.44109 13.9732 6.25106 14.1626C6.06102 14.3519 5.966 14.5865 5.966 14.8664C5.966 15.1463 6.06102 15.3809 6.25106 15.5703C6.44109 15.7596 6.67658 15.8543 6.9575 15.8543ZM6.9575 12.8907H16.8725C17.1534 12.8907 17.3889 12.796 17.5789 12.6067C17.769 12.4174 17.864 12.1827 17.864 11.9029C17.864 11.623 17.769 11.3883 17.5789 11.199C17.3889 11.0097 17.1534 10.915 16.8725 10.915H6.9575C6.67658 10.915 6.44109 11.0097 6.25106 11.199C6.06102 11.3883 5.966 11.623 5.966 11.9029C5.966 12.1827 6.06102 12.4174 6.25106 12.6067C6.44109 12.796 6.67658 12.8907 6.9575 12.8907ZM6.9575 9.92714H16.8725C17.1534 9.92714 17.3889 9.83247 17.5789 9.64313C17.769 9.45379 17.864 9.21918 17.864 8.93928C17.864 8.65939 17.769 8.42478 17.5789 8.23544C17.3889 8.0461 17.1534 7.95143 16.8725 7.95143H6.9575C6.67658 7.95143 6.44109 8.0461 6.25106 8.23544C6.06102 8.42478 5.966 8.65939 5.966 8.93928C5.966 9.21918 6.06102 9.45379 6.25106 9.64313C6.44109 9.83247 6.67658 9.92714 6.9575 9.92714Z" fill="#C7C7C7"/>
</svg>
