<svg width="25" height="25" viewBox="0 0 25 25" fill="none" xmlns="http://www.w3.org/2000/svg">
<path d="M11.835 12.835C10.6202 12.835 9.58023 12.4025 8.71514 11.5374C7.85005 10.6723 7.4175 9.63231 7.4175 8.4175C7.4175 7.20269 7.85005 6.16273 8.71514 5.29764C9.58023 4.43255 10.6202 4 11.835 4C13.0498 4 14.0898 4.43255 14.9549 5.29764C15.82 6.16273 16.2525 7.20269 16.2525 8.4175C16.2525 9.63231 15.82 10.6723 14.9549 11.5374C14.0898 12.4025 13.0498 12.835 11.835 12.835ZM3 19.4612V18.5777C3 17.9519 3.16105 17.3767 3.48316 16.8522C3.80527 16.3276 4.23322 15.9272 4.767 15.6512C5.90819 15.0806 7.06778 14.6526 8.24578 14.3673C9.42378 14.082 10.6202 13.9394 11.835 13.9394C13.0498 13.9394 14.2462 14.082 15.4242 14.3673C16.6022 14.6526 17.7618 15.0806 18.903 15.6512C19.4368 15.9272 19.8647 16.3276 20.1868 16.8522C20.5089 17.3767 20.67 17.9519 20.67 18.5777V19.4612C20.67 20.0687 20.4537 20.5886 20.0212 21.0212C19.5886 21.4537 19.0687 21.67 18.4612 21.67H5.20875C4.60134 21.67 4.08137 21.4537 3.64882 21.0212C3.21627 20.5886 3 20.0687 3 19.4612ZM5.20875 19.4612H18.4612V18.5777C18.4612 18.3753 18.4106 18.1912 18.3094 18.0256C18.2082 17.8599 18.0747 17.7311 17.9091 17.639C16.9151 17.1421 15.912 16.7693 14.8996 16.5209C13.8873 16.2724 12.8657 16.1481 11.835 16.1481C10.8042 16.1481 9.7827 16.2724 8.77036 16.5209C7.75802 16.7693 6.75487 17.1421 5.76094 17.639C5.59528 17.7311 5.46184 17.8599 5.3606 18.0256C5.25937 18.1912 5.20875 18.3753 5.20875 18.5777V19.4612ZM11.835 10.6262C12.4424 10.6262 12.9624 10.41 13.3949 9.97743C13.8275 9.54488 14.0437 9.02491 14.0437 8.4175C14.0437 7.81009 13.8275 7.29012 13.3949 6.85757C12.9624 6.42502 12.4424 6.20875 11.835 6.20875C11.2276 6.20875 10.7076 6.42502 10.2751 6.85757C9.84252 7.29012 9.62625 7.81009 9.62625 8.4175C9.62625 9.02491 9.84252 9.54488 10.2751 9.97743C10.7076 10.41 11.2276 10.6262 11.835 10.6262Z" fill="#C7C7C7"/>
</svg>
