<svg width="25" height="25" viewBox="0 0 25 25" fill="none" xmlns="http://www.w3.org/2000/svg">
<path d="M4.16659 21.875C3.59367 21.875 3.10322 21.671 2.69523 21.2631C2.28725 20.8551 2.08325 20.3646 2.08325 19.7917V8.33337C2.08325 7.76046 2.28725 7.27001 2.69523 6.86202C3.10322 6.45403 3.59367 6.25004 4.16659 6.25004H8.33325V4.16671C8.33325 3.59379 8.53725 3.10334 8.94523 2.69535C9.35322 2.28737 9.84367 2.08337 10.4166 2.08337H14.5833C15.1562 2.08337 15.6466 2.28737 16.0546 2.69535C16.4626 3.10334 16.6666 3.59379 16.6666 4.16671V6.25004H20.8333C21.4062 6.25004 21.8966 6.45403 22.3046 6.86202C22.7126 7.27001 22.9166 7.76046 22.9166 8.33337V19.7917C22.9166 20.3646 22.7126 20.8551 22.3046 21.2631C21.8966 21.671 21.4062 21.875 20.8333 21.875H4.16659ZM10.4166 6.25004H14.5833V4.16671H10.4166V6.25004Z" fill="#D3E97A"/>
</svg>
