<svg width="106" height="106" viewBox="0 0 106 106" fill="none" xmlns="http://www.w3.org/2000/svg">
<path d="M38.8452 69.8843L23.5194 54.5585C23.1108 54.149 22.6255 53.8241 22.0912 53.6024C21.5569 53.3808 20.9841 53.2667 20.4056 53.2667C19.8272 53.2667 19.2544 53.3808 18.7201 53.6024C18.1858 53.8241 17.7004 54.149 17.2919 54.5585C15.5694 56.281 15.5694 59.0635 17.2919 60.786L35.7535 79.2476C37.476 80.9701 40.2585 80.9701 41.981 79.2476L88.7094 32.5193C90.4319 30.7968 90.4319 28.0143 88.7094 26.2918C88.3008 25.8823 87.8155 25.5574 87.2812 25.3358C86.7469 25.1141 86.1741 25 85.5956 25C85.0172 25 84.4444 25.1141 83.9101 25.3358C83.3758 25.5574 82.8905 25.8823 82.4819 26.2918L38.8452 69.8843Z" fill="#D3E97A"/>
<path d="M38.8458 67.7635L24.5812 53.499C24.5809 53.4987 24.5806 53.4984 24.5803 53.4981C24.5802 53.498 24.5801 53.4979 24.58 53.4978C24.0324 52.9492 23.382 52.514 22.666 52.2169C21.9495 51.9197 21.1814 51.7667 20.4056 51.7667C19.6299 51.7667 18.8618 51.9197 18.1453 52.2169C17.4293 52.514 16.7789 52.9492 16.2312 53.4978L38.8458 67.7635ZM38.8458 67.7635L81.42 25.2323C81.4204 25.232 81.4207 25.2316 81.4211 25.2313C81.9688 24.6826 82.6192 24.2473 83.3353 23.9503L83.9101 25.3358L83.3353 23.9503C84.0518 23.653 84.8199 23.5 85.5956 23.5C86.3714 23.5 87.1395 23.653 87.856 23.9503L87.2812 25.3358L87.856 23.9503C88.572 24.2473 89.2224 24.6826 89.7701 25.2312C92.0783 27.5394 92.0783 31.2717 89.7701 33.58L43.0417 80.3083C40.7334 82.6166 37.0012 82.6166 34.6929 80.3083L16.2312 61.8466C13.9233 59.5387 13.9229 55.8074 16.23 53.499L38.8458 67.7635Z" stroke="#D3E97A" stroke-opacity="0.29" stroke-width="3"/>
</svg>
