<svg width="32" height="32" viewBox="0 0 32 32" fill="none" xmlns="http://www.w3.org/2000/svg">
<path d="M22.3333 18.6134C22.6667 18.7867 22.88 18.88 22.9467 19.0134C23.0267 19.16 23 19.8267 22.6667 20.5867C22.4 21.3334 21.0133 22.0534 20.4 22.08C19.7867 22.1067 19.7733 22.56 16.4533 21.1067C13.1333 19.6534 11.1333 16.1067 10.9733 15.88C10.8133 15.6534 9.69333 14.04 9.74666 12.4C9.81333 10.7734 10.6667 10 11.0133 9.68002C11.3333 9.33335 11.6933 9.29335 11.92 9.33335H12.5467C12.7467 9.33335 13.0267 9.25335 13.28 9.93335L14.2 12.4267C14.28 12.6 14.3333 12.8 14.2133 13.0134L13.8533 13.56L13.3333 14.12C13.1733 14.28 12.9867 14.4534 13.1733 14.7867C13.3333 15.1334 14 16.24 14.9333 17.16C16.1467 18.3334 17.2133 18.72 17.5333 18.8934C17.8533 19.08 18.0533 19.0534 18.2533 18.84L19.3333 17.5867C19.5867 17.2534 19.8 17.3334 20.1067 17.44L22.3333 18.6134ZM16 2.66669C17.751 2.66669 19.4848 3.01156 21.1024 3.68163C22.7201 4.35169 24.19 5.33382 25.4281 6.57193C26.6662 7.81004 27.6483 9.2799 28.3184 10.8976C28.9885 12.5152 29.3333 14.2491 29.3333 16C29.3333 19.5362 27.9286 22.9276 25.4281 25.4281C22.9276 27.9286 19.5362 29.3334 16 29.3334C13.3733 29.3334 10.9333 28.5734 8.86666 27.2667L2.66667 29.3334L4.73333 23.1334C3.38067 21.0002 2.6638 18.5259 2.66667 16C2.66667 12.4638 4.07142 9.07241 6.57191 6.57193C9.07239 4.07144 12.4638 2.66669 16 2.66669ZM16 5.33335C13.171 5.33335 10.4579 6.45716 8.45753 8.45755C6.45714 10.4579 5.33333 13.171 5.33333 16C5.33333 18.2934 6.05333 20.4134 7.28 22.1467L6 26L9.85333 24.72C11.6504 25.9914 13.7987 26.6718 16 26.6667C18.829 26.6667 21.5421 25.5429 23.5425 23.5425C25.5429 21.5421 26.6667 18.829 26.6667 16C26.6667 13.171 25.5429 10.4579 23.5425 8.45755C21.5421 6.45716 18.829 5.33335 16 5.33335Z" fill="#D3E97A"/>
</svg>
