<svg width="40" height="40" viewBox="0 0 40 40" fill="none" xmlns="http://www.w3.org/2000/svg">
<path d="M37.83 0H3L6.07324 34.1521L20.415 38.17L34.7568 34.1521L37.83 0Z" fill="#0277BD"/>
<path d="M20.4149 3.01367V35.0564L31.8883 31.8421L34.4494 3.01367H20.4149Z" fill="#039BE5"/>
<path d="M29.7371 8.03601H20.4149V12.0539H25.4345L25.1272 16.0718H20.4149V20.0897H24.9223L24.615 24.6098L20.4149 26.0161V30.2349L28.5078 27.6232L29.2249 16.0718L29.7371 8.03601Z" fill="white"/>
<path d="M20.4148 8.03601V12.0539H11.2976L10.9902 8.03601H20.4148ZM15.7025 16.0718L15.9074 20.0897H20.4148V16.0718H15.7025ZM16.1123 22.0986H12.0146L12.322 27.6232L20.4148 30.2349V26.0161L16.2147 24.6098L16.1123 22.0986Z" fill="#EEEEEE"/>
</svg>
