<svg width="40" height="40" viewBox="0 0 40 40" fill="none" xmlns="http://www.w3.org/2000/svg">
<path d="M20 1.66663C10.6542 1.66663 3.33337 4.96079 3.33337 9.16663V30.8333C3.33337 35.0391 10.6542 38.3333 20 38.3333C29.3459 38.3333 36.6667 35.0391 36.6667 30.8333V9.16663C36.6667 4.96079 29.3459 1.66663 20 1.66663ZM35 23.3333C35 26.7708 27.095 29.1666 20 29.1666C12.905 29.1666 5.00004 26.7708 5.00004 23.3333V19.1366C7.67171 21.64 13.3084 23.3333 20 23.3333C26.6917 23.3333 32.3284 21.64 35 19.1366V23.3333ZM35 15.8333C35 19.2708 27.095 21.6666 20 21.6666C12.905 21.6666 5.00004 19.2708 5.00004 15.8333V12.47C7.67171 14.9733 13.3084 16.6666 20 16.6666C26.6917 16.6666 32.3284 14.9733 35 12.47V15.8333ZM20 3.33329C27.095 3.33329 35 5.72913 35 9.16663C35 12.6041 27.095 15 20 15C12.905 15 5.00004 12.6041 5.00004 9.16663C5.00004 5.72913 12.9059 3.33329 20 3.33329ZM20 36.6666C12.905 36.6666 5.00004 34.2708 5.00004 30.8333V26.6366C7.67171 29.14 13.3084 30.8333 20 30.8333C26.6917 30.8333 32.3284 29.14 35 26.6366V30.8333C35 34.2708 27.095 36.6666 20 36.6666Z" fill="#42A4EE"/>
</svg>
