<svg width="40" height="40" viewBox="0 0 40 40" fill="none" xmlns="http://www.w3.org/2000/svg">
<path d="M35.4028 3H22.6041C21.722 3 21.0068 3.71355 21.0068 4.59376V17.3644C21.0068 18.2446 21.722 18.9582 22.6041 18.9582H35.4028C36.2849 18.9582 37 18.2446 37 17.3644V4.59376C37 3.71355 36.2849 3 35.4028 3Z" fill="#FF8434"/>
<path d="M17.3165 19.9157V7.54883C17.3166 7.29426 17.2664 7.04217 17.1688 6.80698C17.0711 6.57179 16.928 6.35812 16.7475 6.17819C16.3832 5.81469 15.889 5.61047 15.3738 5.61047C14.8586 5.61047 14.3645 5.81469 14.0002 6.17819L4.07658 16.0821C3.38723 16.7703 3 17.7036 3 18.6766C3 19.6496 3.38723 20.5829 4.07658 21.2711L18.7653 35.9257C19.4551 36.6136 20.3904 37 21.3655 37C22.3407 37 23.276 36.6136 23.9657 35.9257L33.8894 26.0238C34.2537 25.6603 34.4583 25.1673 34.4583 24.6532C34.4583 24.1391 34.2537 23.6461 33.8894 23.2826L33.8135 23.2082C33.6332 23.0281 33.419 22.8853 33.1833 22.7878C32.9476 22.6904 32.695 22.6403 32.4398 22.6404H20.0471C19.6885 22.6407 19.3333 22.5704 19.0019 22.4335C18.6704 22.2967 18.3693 22.096 18.1157 21.843C17.8621 21.5899 17.661 21.2894 17.5238 20.9587C17.3867 20.6281 17.3162 20.2736 17.3165 19.9157Z" fill="#FF8434"/>
</svg>
