<svg width="40" height="40" viewBox="0 0 40 40" fill="none" xmlns="http://www.w3.org/2000/svg">
<path d="M21.6666 14.1667H15C11.7783 14.1667 9.16663 11.555 9.16663 8.33333C9.16663 5.11167 11.7783 2.5 15 2.5H21.6666V14.1667Z" fill="#E64A19"/>
<path d="M20.8333 25.8333H15C11.7783 25.8333 9.16663 23.2216 9.16663 20C9.16663 16.7783 11.7783 14.1666 15 14.1666H20.8333V25.8333Z" fill="#7C4DFF"/>
<path d="M15 37.5C11.7783 37.5 9.16663 34.8884 9.16663 31.6667C9.16663 28.445 11.7783 25.8334 15 25.8334H20.8333V31.6667C20.8333 34.8884 18.2216 37.5 15 37.5Z" fill="#66BB6A"/>
<path d="M26.6667 14.1667H20.8334V2.5H26.6667C29.8884 2.5 32.5 5.11167 32.5 8.33333C32.5 11.555 29.8884 14.1667 26.6667 14.1667Z" fill="#FF7043"/>
<path d="M26.6667 25.8333C29.8884 25.8333 32.5 23.2216 32.5 20C32.5 16.7783 29.8884 14.1666 26.6667 14.1666C23.445 14.1666 20.8334 16.7783 20.8334 20C20.8334 23.2216 23.445 25.8333 26.6667 25.8333Z" fill="#29B6F6"/>
</svg>
