<svg width="30" height="40" viewBox="0 0 30 40" fill="none" xmlns="http://www.w3.org/2000/svg">
<g clip-path="url(#clip0_103_2)">
<path d="M9.27747 38.6519C10.8343 39.3217 12.5228 39.7194 14.2961 39.7861C16.6956 39.8757 18.9787 39.3446 21.0187 38.3362C18.5722 37.3081 16.3565 35.8046 14.4647 33.9352C13.2399 36.0351 11.4267 37.6926 9.27747 38.6519Z" fill="#FF9100"/>
<path d="M14.4657 33.9361C15.4699 32.2186 16.0776 30.2038 16.1492 28.0339C16.3351 22.3262 12.7476 17.416 7.78199 16.0459C7.76974 16.2655 7.75848 16.4862 7.75133 16.7058C7.53069 23.4843 10.1488 29.6652 14.4657 33.9361Z" fill="#FF9100"/>
<path d="M14.4656 33.9362C10.1487 29.6663 7.52955 23.4854 7.75122 16.7058C7.75837 16.4862 7.76959 16.2655 7.78188 16.0459C7.00858 15.8318 6.20158 15.7017 5.37111 15.67C4.18208 15.6253 3.03083 15.7837 1.94394 16.1104C0.791684 18.2693 0.0960354 20.7463 0.0092071 23.4002C-0.214503 30.2486 3.66008 36.2317 9.27736 38.6519C11.4266 37.6937 13.2398 36.0373 14.4656 33.9362Z" fill="#FFC400"/>
<path d="M15.5933 0C12.7657 2.42339 10.5317 5.61815 9.18128 9.29912C8.40802 11.4079 7.92177 13.6717 7.77979 16.0459C12.7453 17.4161 16.3329 22.3262 16.1459 28.0351C16.0754 30.205 15.4646 32.2175 14.4625 33.9373C16.3533 35.8089 18.57 37.3101 21.0165 38.3383C25.9279 35.9105 29.4123 30.6857 29.6135 24.506C29.7442 20.5016 28.3059 16.9331 26.2742 13.9208C24.128 10.7359 15.5933 0 15.5933 0Z" fill="#DD2C00"/>
</g>
<defs>
<clipPath id="clip0_103_2">
<rect width="30" height="40" fill="white"/>
</clipPath>
</defs>
</svg>
