<svg width="40" height="40" viewBox="0 0 40 40" fill="none" xmlns="http://www.w3.org/2000/svg">
<path d="M14.396 38.8502C15.9727 39.5234 17.6828 39.9231 19.4788 39.9902C21.9089 40.0802 24.2211 39.5465 26.2871 38.5328C23.8094 37.4994 21.5654 35.9883 19.6494 34.1093C18.409 36.22 16.5727 37.886 14.396 38.8502Z" fill="#FF9100"/>
<path d="M19.6505 34.1102C20.6675 32.3838 21.283 30.3587 21.3554 28.1777C21.5437 22.4407 17.9104 17.5053 12.8814 16.1282C12.869 16.3489 12.8576 16.5707 12.8504 16.7915C12.6269 23.6048 15.2785 29.8173 19.6505 34.1102Z" fill="#FF9100"/>
<path d="M19.6503 34.1102C15.2783 29.8184 12.6257 23.6059 12.8502 16.7915C12.8574 16.5708 12.8688 16.3489 12.8812 16.1282C12.0981 15.913 11.2808 15.7823 10.4397 15.7504C9.23549 15.7054 8.06953 15.8646 6.96877 16.193C5.80179 18.363 5.09726 20.8527 5.00932 23.5202C4.78276 30.4038 8.70682 36.4176 14.3958 38.8501C16.5725 37.887 18.4088 36.2221 19.6503 34.1102Z" fill="#FFC400"/>
<path d="M20.7924 0C17.9288 2.43582 15.6662 5.64698 14.2985 9.34683C13.5154 11.4664 13.0229 13.7419 12.8792 16.1283C17.9081 17.5054 21.5415 22.4408 21.3521 28.1789C21.2807 30.3599 20.6621 32.3828 19.6472 34.1114C21.5621 35.9926 23.8071 37.5016 26.2849 38.535C31.259 36.0948 34.7879 30.8431 34.9917 24.6317C35.1241 20.6068 33.6674 17.02 31.6097 13.9923C29.4361 10.791 20.7924 0 20.7924 0Z" fill="#DD2C00"/>
</svg>
