<svg width="30" height="38" viewBox="0 0 30 38" fill="none" xmlns="http://www.w3.org/2000/svg">
<g clip-path="url(#clip0_103_2)">
<path d="M9.27747 36.7193C10.8343 37.3556 12.5228 37.7334 14.2961 37.7968C16.6956 37.8819 18.9787 37.3774 21.0187 36.4194C18.5722 35.4426 16.3565 34.0144 14.4647 32.2384C13.2399 34.2334 11.4267 35.808 9.27747 36.7193Z" fill="#FF9100"/>
<path d="M14.4656 32.2394C10.1487 28.183 7.52955 22.3112 7.75122 15.8706C7.75837 15.662 7.76959 15.4523 7.78188 15.2437C7.00858 15.0402 6.20158 14.9167 5.37111 14.8866C4.18208 14.844 3.03083 14.9945 1.94394 15.3049C0.791684 17.3559 0.0960354 19.709 0.0092071 22.2302C-0.214503 28.7363 3.66008 34.4202 9.27736 36.7193C11.4266 35.809 13.2398 34.2354 14.4656 32.2394Z" fill="#FFC400"/>
<path d="M14.4657 32.2394C15.4699 30.6077 16.0776 28.6937 16.1492 26.6323C16.3351 21.2099 12.7476 16.5453 7.78199 15.2437C7.76974 15.4523 7.75848 15.6619 7.75133 15.8706C7.53069 22.3101 10.1488 28.182 14.4657 32.2394Z" fill="#FF9100"/>
<path d="M15.5933 0C12.7657 2.30222 10.5317 5.33725 9.18128 8.83416C8.40802 10.8375 7.92177 12.9881 7.77979 15.2436C12.7453 16.5453 16.3329 21.2099 16.1459 26.6333C16.0754 28.6947 15.4646 30.6067 14.4625 32.2404C16.3533 34.0185 18.57 35.4446 21.0165 36.4214C25.9279 34.115 29.4123 29.1514 29.6135 23.2807C29.7442 19.4765 28.3059 16.0865 26.2742 13.2248C24.128 10.1991 15.5933 0 15.5933 0Z" fill="#DD2C00"/>
</g>
<defs>
<clipPath id="clip0_103_2">
<rect width="30" height="38" fill="white"/>
</clipPath>
</defs>
</svg>
