<svg width="40" height="40" viewBox="0 0 40 40" fill="none" xmlns="http://www.w3.org/2000/svg">
<g clip-path="url(#clip0_74_59)">
<path d="M38.8348 17.8515L21.8185 0.835158C21.2965 0.313184 20.5658 0 19.835 0C19.1042 0 18.3735 0.313184 17.8515 0.835158L14.1977 4.48897L18.4779 8.76916C18.8954 8.56037 19.313 8.45597 19.835 8.45597C21.6097 8.45597 22.9668 9.81311 22.9668 11.5878C22.9668 12.1098 22.8624 12.5274 22.6537 12.9449L26.8294 17.1207C27.247 16.9119 27.6646 16.8076 28.1866 16.8076C29.9613 16.8076 31.3184 18.1647 31.3184 19.9394C31.3184 21.7141 29.9613 23.0712 28.1866 23.0712C26.4119 23.0712 25.0547 21.7141 25.0547 19.9394C25.0547 19.4174 25.1591 18.9998 25.3679 18.5823L21.1921 14.4065C21.0877 14.4065 20.9833 14.5109 20.8789 14.5109V25.3679C22.1317 25.7855 22.9668 26.9338 22.9668 28.291C22.9668 30.0657 21.6097 31.4228 19.835 31.4228C18.0603 31.4228 16.7032 30.0657 16.7032 28.291C16.7032 26.9338 17.5383 25.7855 18.7911 25.3679V14.4065C17.5383 13.9889 16.7032 12.8406 16.7032 11.4834C16.7032 10.9614 16.8076 10.5439 17.0163 10.1263L12.7362 5.84611L0.835158 17.8515C0.313184 18.3735 0 19.1042 0 19.835C0 20.5658 0.313184 21.2965 0.835158 21.8185L17.8515 38.8348C18.3735 39.3568 19.1042 39.67 19.835 39.67C20.5658 39.67 21.2965 39.3568 21.8185 38.8348L38.8348 21.8185C39.3568 21.2965 39.67 20.5658 39.67 19.835C39.67 19.1042 39.3568 18.3735 38.8348 17.8515Z" fill="#F4511E"/>
</g>
<defs>
<clipPath id="clip0_74_59">
<rect width="40" height="40" fill="white"/>
</clipPath>
</defs>
</svg>
