<svg width="40" height="40" viewBox="0 0 40 40" fill="none" xmlns="http://www.w3.org/2000/svg">
<path d="M13.224 31.1666C13.224 31.0106 13.068 30.8546 12.8334 30.8546C12.5987 30.8546 12.4427 31.0106 12.4427 31.1666C12.4427 31.3239 12.5987 31.4799 12.8334 31.4013C13.068 31.4013 13.224 31.3239 13.224 31.1666ZM10.8027 30.7759C10.8027 30.9333 10.9587 31.1666 11.1934 31.1666C11.3494 31.2453 11.584 31.1666 11.6614 31.0106C11.6614 30.8546 11.5827 30.6986 11.3494 30.6199C11.1147 30.5426 10.88 30.6199 10.8027 30.7759ZM14.3174 30.6986C14.084 30.6986 13.9267 30.8546 13.9267 31.0893C13.9267 31.2453 14.1614 31.3239 14.396 31.2453C14.6307 31.1666 14.7867 31.0893 14.708 30.9333C14.708 30.7759 14.4734 30.6199 14.3174 30.6986ZM19.396 0.698608C8.61337 0.698608 0.333374 8.97861 0.333374 19.7599C0.333374 28.4319 5.72404 35.8533 13.536 38.5093C14.552 38.6653 14.864 38.0413 14.864 37.5719V32.7279C14.864 32.7279 9.39604 33.9013 8.22404 30.3839C8.22404 30.3839 7.36404 28.1186 6.11471 27.5719C6.11471 27.5719 4.31737 26.3226 6.19337 26.3226C6.19337 26.3226 8.14537 26.4786 9.24004 28.3533C10.9587 31.3999 13.7707 30.5399 14.9427 29.9933C15.0987 28.7439 15.568 27.8839 16.1934 27.3373C11.8174 26.8693 7.36404 26.2439 7.36404 18.7439C7.36404 16.5573 7.99071 15.5413 9.24004 14.1346C9.00537 13.5879 8.38004 11.5559 9.47337 8.82261C11.036 8.35461 14.864 10.9333 14.864 10.9333C16.4267 10.4639 18.068 10.3066 19.708 10.3066C21.428 10.3066 23.068 10.4639 24.6307 10.9333C24.6307 10.9333 28.38 8.27594 30.0214 8.82394C31.1147 11.5573 30.412 13.5893 30.2547 14.1359C31.5054 15.5426 32.2867 16.5573 32.2867 18.7453C32.2867 26.2453 27.6774 26.8706 23.3027 27.3386C24.0054 27.9639 24.6307 29.1359 24.6307 31.0106C24.6307 33.5893 24.552 36.8706 24.552 37.4959C24.552 38.0426 24.9427 38.6666 25.9587 38.4333C33.772 35.8546 39.0827 28.4333 39.0827 19.7613C39.0827 8.97994 30.256 0.698608 19.396 0.698608ZM7.91204 27.6519C7.75471 27.7293 7.83337 27.9639 7.91204 28.1199C8.06804 28.1986 8.22404 28.2759 8.38004 28.1986C8.45871 28.1199 8.45871 27.8853 8.30271 27.7293C8.14537 27.6519 7.98937 27.5733 7.91204 27.6519ZM7.05204 27.0253C6.97337 27.1826 7.05204 27.2613 7.20804 27.3386C7.36404 27.4173 7.52137 27.4173 7.59871 27.2613C7.59871 27.1826 7.52137 27.1039 7.36404 27.0266C7.20804 26.9479 7.13071 26.9479 7.05204 27.0266V27.0253ZM9.55204 29.8386C9.47337 29.9173 9.47337 30.1519 9.70804 30.3079C9.86404 30.4639 10.0987 30.5426 10.1774 30.3853C10.2547 30.3079 10.2547 30.0733 10.0987 29.9173C9.94271 29.7613 9.70804 29.6826 9.55204 29.8386ZM8.69337 28.6666C8.53604 28.7453 8.53604 28.9799 8.69337 29.1359C8.84937 29.2919 9.00537 29.3706 9.16137 29.2919C9.24004 29.2133 9.24004 28.9799 9.16137 28.8239C9.00537 28.6666 8.84937 28.5893 8.69337 28.6666Z" fill="black"/>
</svg>
