<svg width="40" height="40" viewBox="0 0 40 40" fill="none" xmlns="http://www.w3.org/2000/svg">
<path d="M37.33 1H3L6.02912 34.7047L20.165 38.67L34.3009 34.7047L37.33 1Z" fill="#E65100"/>
<path d="M20.1649 3.97412V35.5971L31.4736 32.4249L33.9979 3.97412H20.1649Z" fill="#FF6D00"/>
<path d="M20.1649 20.8266V16.8613H28.8484L28.1416 28.2614L20.1649 30.8389V26.6753L24.3047 25.2875L24.6076 20.8266H20.1649ZM29.1513 12.896L29.4542 8.93079H20.1649V12.896H29.1513Z" fill="white"/>
<path d="M20.1646 26.6753V30.8389L12.188 28.2614L11.7841 22.8092H15.8229L16.0248 25.2875L20.1646 26.6753ZM15.2171 12.896H20.1646V8.93079H10.9763L11.6831 20.8266H20.1646V16.8613H15.52L15.2171 12.896Z" fill="#EEEEEE"/>
</svg>
