<svg width="40" height="40" viewBox="0 0 40 40" fill="none" xmlns="http://www.w3.org/2000/svg">
<path d="M20.1384 20.5485C19.1071 18.9665 18.359 17.6548 17.3226 15.185C15.57 11.0131 27.9814 7.24344 22.9491 0C25.1304 5.00364 15.1195 8.09688 14.1895 12.2638C13.3391 16.0964 20.1332 20.5485 20.1384 20.5485Z" fill="#F44336"/>
<path d="M20.3741 13.0485C20.1757 15.5223 22.6774 16.8408 22.7498 18.648C22.8076 20.1189 21.2545 21.345 21.2545 21.345C21.2545 21.345 24.0735 20.818 24.9528 18.5743C25.9293 16.0828 23.0577 14.3769 23.3532 12.3819C23.6291 10.4764 29.5853 6.93188 29.5853 6.93188C29.5853 6.93188 20.8216 7.48446 20.3741 13.0485Z" fill="#F44336"/>
<path d="M28.8537 20.7026C30.6662 20.3152 32.1945 21.4135 32.1945 22.6789C32.1945 25.5313 28.0395 28.2273 28.0395 28.2273C28.0395 28.2273 34.472 27.4977 34.472 22.8146C34.472 19.7174 31.3131 18.9436 28.8537 20.7026ZM25.8002 23.0034C25.8002 23.0034 27.8059 21.6436 28.3402 21.1333C23.4184 22.1273 12.1809 22.261 12.1809 21.3978C12.1809 20.6023 15.8048 19.7872 15.8048 19.7872C15.8048 19.7872 7.77271 19.6771 7.77271 21.9317C7.77271 24.2816 18.2869 24.4497 25.8002 23.0034Z" fill="#1565C0"/>
<path d="M24.5661 25.1433C19.9068 26.6172 11.325 26.1462 13.867 24.167C12.629 24.167 10.7938 25.1138 10.7938 26.0243C10.7938 27.8502 20.0752 29.2601 26.9448 26.5867L24.5661 25.1433Z" fill="#1565C0"/>
<path d="M15.0088 28.2582C13.3183 28.2582 12.224 29.2945 12.224 30.0496C12.224 32.4005 22.3093 32.6375 26.3052 30.2512L23.7653 28.6466C20.78 29.8953 13.2811 30.0673 15.0088 28.2582Z" fill="#1565C0"/>
<path d="M33.1904 32.0855C33.1904 31.1652 32.1002 30.7316 31.7096 30.5241C34.0119 35.807 8.6487 35.397 8.6487 32.2782C8.6487 31.5693 10.5159 30.8751 12.2416 31.2035L10.7743 30.3786C7.33533 29.8653 5 31.3038 5 32.464C5 37.8747 33.1904 37.6141 33.1904 32.0855Z" fill="#1565C0"/>
<path d="M35.9998 34.0247C31.7156 38.051 20.8521 39.5179 9.92773 37.0304C20.8521 41.4579 35.9481 38.9644 35.9998 34.0247Z" fill="#1565C0"/>
</svg>
