<svg width="40" height="40" viewBox="0 0 40 40" fill="none" xmlns="http://www.w3.org/2000/svg">
<g clip-path="url(#clip0_75_174)">
<path d="M20.0005 26.5314L13.469 20L20.0005 13.4686V0L1.34712 18.6533C0.99003 19.0105 0.789429 19.4949 0.789429 20C0.789429 20.5051 0.99003 20.9895 1.34712 21.3467L20.0005 40C20.0005 40 22.8576 38.0952 22.8576 33.3333C22.7098 30.8063 21.7015 28.406 20.0005 26.5314Z" fill="#2684FF"/>
<path d="M14.4891 18.7305L14.6138 18.8552L20.0005 13.4686V0L9.9043 10.0952C10.6634 13.3204 12.2427 16.2949 14.4891 18.7305Z" fill="#1D78F2"/>
<path d="M15.8671 17.4143L15.9624 17.5095L20.0024 13.4695V0L11.5566 8.44381C12.0862 11.7909 13.5848 14.9095 15.8671 17.4143Z" fill="#126AE5"/>
<path d="M20.0004 13.4686V0L13.3337 6.66667C13.4797 10.205 14.889 13.5737 17.3061 16.1619L20.0004 13.4686Z" fill="#0B60DA"/>
<path d="M15.2385 6.66667C15.2385 11.1867 18.4833 14.639 18.6528 14.8152L20.0004 13.4686V0L15.4081 4.59238C15.2942 5.27791 15.2374 5.97173 15.2385 6.66667Z" fill="#0154CE"/>
<path d="M20.0005 13.4686L26.5309 20L20.0005 26.5314V40L38.6528 21.3467C39.0099 20.9895 39.2105 20.5051 39.2105 20C39.2105 19.4949 39.0099 19.0105 38.6528 18.6533L20.0005 0C20.0005 0 17.1433 1.90476 17.1433 6.66667C17.2911 9.19369 18.2994 11.594 20.0005 13.4686Z" fill="#2482FD"/>
<path d="M25.511 21.2695L25.3862 21.1448L20.0005 26.5314V40L30.0957 29.9048C29.3366 26.6796 27.7573 23.7051 25.511 21.2695Z" fill="#1D78F2"/>
<path d="M24.1328 22.5857L24.0376 22.4905L19.9985 26.5305V40L28.4423 31.5562C27.9127 28.2093 26.4146 25.0908 24.1328 22.5857Z" fill="#126AE5"/>
<path d="M20.0005 26.5315V40L26.6672 33.3334C26.521 29.7949 25.1113 26.4261 22.6938 23.8381L20.0005 26.5315Z" fill="#0B60DA"/>
<path d="M24.7624 33.3334C24.7624 28.8134 21.5176 25.361 21.3472 25.1848L20.0005 26.5315V40.0001L24.5929 35.4077C24.7063 34.7221 24.763 34.0283 24.7624 33.3334Z" fill="#0154CE"/>
<path d="M20.0004 26.5314L13.469 20H2.85754V22.8571L20.0004 40C20.0004 40 22.8575 38.0952 22.8575 33.3333C22.7097 30.8063 21.7015 28.406 20.0004 26.5314Z" fill="#2684FF"/>
</g>
<defs>
<clipPath id="clip0_75_174">
<rect width="40" height="40" fill="white"/>
</clipPath>
</defs>
</svg>
