<svg width="40" height="40" viewBox="0 0 40 40" fill="none" xmlns="http://www.w3.org/2000/svg">
<path d="M2 38V2H38V38H2Z" fill="#FFD600"/>
<path d="M25.5381 28.9471C26.2301 30.0711 26.9821 31.1481 28.5751 31.1481C29.9131 31.1481 30.6151 30.4831 30.6151 29.5631C30.6151 28.4621 29.8891 28.0711 28.4171 27.4301L27.6101 27.0861C25.2811 26.0981 23.7321 24.8601 23.7321 22.2451C23.7321 19.8351 25.5771 18.0011 28.4601 18.0011C30.5131 18.0011 31.9881 18.7121 33.0521 20.5741L30.5381 22.1811C29.9851 21.1931 29.3871 20.8041 28.4601 20.8041C27.5141 20.8041 26.9151 21.4011 26.9151 22.1811C26.9151 23.1451 27.5151 23.5351 28.9001 24.1321L29.7071 24.4761C32.4521 25.6451 34.0001 26.8391 34.0001 29.5231C34.0001 32.4151 31.7161 34.0001 28.6501 34.0001C25.6511 34.0001 23.9481 32.4951 23.0001 30.6321L25.5381 28.9471ZM13.9521 29.0291C14.4581 29.9351 15.2271 30.6321 16.3331 30.6321C17.3911 30.6321 18.0001 30.2141 18.0001 28.5891V18.0001H21.3331V29.1011C21.3331 32.4681 19.3801 34.0001 16.5281 34.0001C13.9511 34.0001 12.0911 32.2541 11.3331 30.6321L13.9521 29.0291Z" fill="#000001"/>
</svg>
