<svg width="42" height="32" viewBox="0 0 42 32" fill="none" xmlns="http://www.w3.org/2000/svg">
<g clip-path="url(#clip0_75_152)">
<path d="M11.9318 0.470581H3.34093C1.75939 0.470581 0.477295 1.73472 0.477295 3.29411V11.7647C0.477295 13.3241 1.75939 14.5882 3.34093 14.5882H11.9318C13.5134 14.5882 14.7955 13.3241 14.7955 11.7647V3.29411C14.7955 1.73472 13.5134 0.470581 11.9318 0.470581Z" fill="#537FE7"/>
<path d="M38.6591 0.470581H20.5227C18.9412 0.470581 17.6591 1.73472 17.6591 3.29411V11.7647C17.6591 13.3241 18.9412 14.5882 20.5227 14.5882H38.6591C40.2406 14.5882 41.5227 13.3241 41.5227 11.7647V3.29411C41.5227 1.73472 40.2406 0.470581 38.6591 0.470581Z" fill="#537FE7"/>
<path d="M30.0682 31.5294H38.6591C40.2406 31.5294 41.5227 30.2653 41.5227 28.7059V20.2353C41.5227 18.6759 40.2406 17.4118 38.6591 17.4118H30.0682C28.4866 17.4118 27.2045 18.6759 27.2045 20.2353V28.7059C27.2045 30.2653 28.4866 31.5294 30.0682 31.5294Z" fill="#537FE7"/>
<path d="M3.34094 31.5294L21.4773 31.5294C23.0588 31.5294 24.3409 30.2653 24.3409 28.7059V20.2353C24.3409 18.6759 23.0588 17.4118 21.4773 17.4118H3.34094C1.7594 17.4118 0.477306 18.6759 0.477306 20.2353V28.7059C0.477306 30.2653 1.7594 31.5294 3.34094 31.5294Z" fill="#537FE7"/>
</g>
<defs>
<clipPath id="clip0_75_152">
<rect width="42" height="32" fill="white"/>
</clipPath>
</defs>
</svg>
