<svg width="40" height="40" viewBox="0 0 40 40" fill="none" xmlns="http://www.w3.org/2000/svg">
<path fill-rule="evenodd" clip-rule="evenodd" d="M33.7144 26.225C33.8834 26.134 34.0239 26.003 34.1218 25.845C34.2197 25.687 34.2716 25.5077 34.2722 25.325L34.2922 19.2969C34.2928 19.1142 34.3447 18.9349 34.4426 18.7769C34.5405 18.6189 34.681 18.4879 34.85 18.3969L38.3355 16.5198C38.5045 16.4289 38.6959 16.3811 38.8908 16.3814C39.0856 16.3818 39.2769 16.4301 39.4455 16.5216C39.6141 16.613 39.754 16.7445 39.8514 16.9027C39.9487 17.0609 40 17.2403 40 17.4229V28.3823C40 28.5655 39.9484 28.7455 39.8504 28.9041C39.7525 29.0626 39.6117 29.1942 39.4422 29.2854L26.2878 36.3688C26.1197 36.4592 25.9294 36.5069 25.7357 36.507C25.542 36.5072 25.3515 36.4599 25.1833 36.3698L14.86 30.8344C14.6899 30.7433 14.5486 30.6117 14.4502 30.4529C14.3519 30.2942 14.3001 30.1138 14.3 29.9302V24.4042C14.3 24.3979 14.3078 24.3938 14.3144 24.3969C14.32 24.4 14.3278 24.3969 14.3278 24.3896V24.3833C14.3278 24.3792 14.33 24.375 14.3344 24.3729L22.8367 19.7938C22.8444 19.7896 22.8411 19.7781 22.8322 19.7781C22.8299 19.7781 22.8276 19.7773 22.8259 19.7757C22.8243 19.7741 22.8233 19.772 22.8233 19.7698L22.84 14.3521C22.8408 14.1689 22.79 13.9887 22.6928 13.8298C22.5956 13.6709 22.4554 13.5388 22.2864 13.4469C22.1173 13.355 21.9254 13.3065 21.73 13.3063C21.5346 13.3061 21.3426 13.3542 21.1733 13.4458L14.8544 16.8594C14.6858 16.9504 14.4946 16.9983 14.3 16.9983C14.1054 16.9983 13.9142 16.9504 13.7455 16.8594L7.40666 13.4375C7.23778 13.3463 7.04629 13.2984 6.85142 13.2986C6.65654 13.2987 6.46513 13.3469 6.29639 13.4383C6.12765 13.5296 5.98752 13.661 5.89005 13.8192C5.79259 13.9774 5.74122 14.1569 5.7411 14.3396V24.1313C5.74123 24.3138 5.69022 24.4931 5.59316 24.6513C5.49611 24.8095 5.35642 24.941 5.18809 25.0327C5.01976 25.1244 4.82869 25.173 4.63402 25.1736C4.43935 25.1743 4.24791 25.127 4.07888 25.0365L0.5611 23.1511C0.390713 23.0598 0.249139 22.9279 0.150776 22.7687C0.0524138 22.6095 0.000771187 22.4288 0.0011002 22.2448L0.0322113 5.13022C0.0326347 4.94777 0.0841691 4.76862 0.181656 4.6107C0.279143 4.45279 0.419164 4.32165 0.587702 4.23041C0.75624 4.13917 0.947385 4.09104 1.142 4.09082C1.33662 4.0906 1.52789 4.13832 1.69666 4.22918L13.7467 10.7177C13.915 10.8084 14.1058 10.8561 14.3 10.8561C14.4942 10.8561 14.6849 10.8084 14.8533 10.7177L26.9 4.22918C27.069 4.13818 27.2606 4.09047 27.4555 4.09082C27.6504 4.09118 27.8417 4.13959 28.0104 4.23119C28.179 4.3228 28.319 4.45438 28.4162 4.61273C28.5135 4.77108 28.5646 4.95063 28.5644 5.13335V22.2521C28.5645 22.4352 28.5131 22.6151 28.4154 22.7737C28.3176 22.9322 28.177 23.0638 28.0078 23.1552L21.6989 26.5615C21.5294 26.6531 21.3888 26.785 21.2911 26.9438C21.1934 27.1027 21.1422 27.283 21.1427 27.4663C21.1431 27.6497 21.1952 27.8297 21.2937 27.9882C21.3921 28.1466 21.5334 28.2779 21.7033 28.3688L25.1833 30.2261C25.3515 30.3158 25.5418 30.3628 25.7353 30.3625C25.9288 30.3621 26.1189 30.3144 26.2867 30.224L33.7144 26.225ZM34.4444 10.8688C34.4446 11.053 34.4969 11.2339 34.5959 11.393C34.6949 11.5521 34.8372 11.6837 35.0082 11.7745C35.1792 11.8652 35.3728 11.9118 35.5693 11.9095C35.7658 11.9072 35.9581 11.8562 36.1267 11.7615L39.46 9.88647C39.6245 9.79403 39.7608 9.66323 39.8554 9.50679C39.95 9.35035 39.9998 9.17361 40 8.99376V5.17293C39.9996 4.9888 39.9472 4.80805 39.8481 4.64909C39.749 4.49013 39.6067 4.35865 39.4357 4.26802C39.2648 4.1774 39.0712 4.13088 38.8748 4.13321C38.6785 4.13553 38.4862 4.18662 38.3178 4.28126L34.9844 6.15626C34.8199 6.2487 34.6837 6.37951 34.589 6.53595C34.4944 6.69238 34.4446 6.86913 34.4444 7.04897V10.8688Z" fill="#007FFF"/>
</svg>
