<svg width="40" height="40" viewBox="0 0 40 40" fill="none" xmlns="http://www.w3.org/2000/svg">
<path d="M39 30.0002V10.0007L20 0L1 10.0007V30.0002L20 40L39 30.0002Z" fill="#43A047"/>
<path d="M28.5001 9.69217C27.1191 9.69217 26.0001 10.7199 26.0001 11.9882V22.3443L14.9841 11.0266L14.8531 10.887C13.6091 9.63523 12.1871 9.69217 11.5001 9.69217C10.1191 9.69217 9.00012 10.7199 9.00012 11.9882V27.6014C9.00012 28.8697 10.1191 29.8974 11.5001 29.8974C12.8811 29.8974 14.0001 28.8697 14.0001 27.6014V17.169L25.2781 28.7659L25.3881 28.8964C26.6201 30.0196 28.2951 29.8974 28.5001 29.8974C29.8811 29.8974 31.0001 28.8697 31.0001 27.6014V11.9882C31.0001 10.7199 29.8811 9.69217 28.5001 9.69217Z" fill="white"/>
</svg>
