<svg width="40" height="40" viewBox="0 0 40 40" fill="none" xmlns="http://www.w3.org/2000/svg">
<path d="M19.8412 38.7C19.3326 38.7 18.8284 38.568 18.3828 38.3128L13.7398 35.582C13.0461 35.1965 13.3845 35.0601 13.6131 34.9818C14.5382 34.6606 14.7251 34.5875 15.7122 34.0305C15.8159 33.9715 15.9514 33.9926 16.0578 34.0551L19.625 36.1575C19.7535 36.2271 19.9369 36.2271 20.0556 36.1575L33.964 28.1834C34.0925 28.1104 34.1766 27.9625 34.1766 27.8103V11.8699C34.1766 11.7106 34.0934 11.569 33.9613 11.4898L20.0592 3.52178C19.9307 3.4461 19.7597 3.4461 19.6312 3.52178L5.73081 11.4889C5.59613 11.5646 5.51019 11.7133 5.51019 11.8655V27.8068C5.51019 27.959 5.59348 28.1042 5.72638 28.1764L9.53552 30.3615C11.6036 31.3886 12.8671 30.1785 12.8671 28.9614V13.2287C12.8671 13.0043 13.0443 12.8309 13.2711 12.8309H15.0326C15.2523 12.8309 15.4331 13.0034 15.4331 13.2287V28.9693C15.4331 31.708 13.9295 33.2815 11.3147 33.2815C10.5102 33.2815 9.87665 33.2815 8.10809 32.4173L4.45933 30.329C3.55733 29.8097 3 28.8408 3 27.8076V11.8664C3 10.8288 3.55733 9.86078 4.45844 9.34859L18.3819 1.37094C19.2626 0.876353 20.4322 0.876353 21.3067 1.37094L35.2124 9.35211C36.1091 9.86694 36.67 10.8324 36.67 11.8699V27.8112C36.67 28.8452 36.1091 29.8097 35.2116 30.329L21.3058 38.3057C20.8602 38.5618 20.3551 38.693 19.8403 38.693" fill="#21A366"/>
<path d="M24.1377 27.7153C18.0523 27.7153 16.7764 24.9405 16.7764 22.6136C16.7764 22.3927 16.9562 22.2159 17.1795 22.2159H18.9764C19.1749 22.2159 19.3424 22.3593 19.3734 22.5538C19.6445 24.372 20.4526 25.289 24.1324 25.289C27.0634 25.289 28.3101 24.6316 28.3101 23.0871C28.3101 22.1983 27.9548 21.5382 23.4014 21.0956C19.5922 20.7224 17.2389 19.889 17.2389 16.8634C17.2389 14.0763 19.6064 12.4165 23.5715 12.4165C28.0248 12.4165 30.232 13.9522 30.5102 17.2506C30.5208 17.365 30.4792 17.475 30.4021 17.5586C30.3259 17.6378 30.2178 17.6862 30.1061 17.6862H28.2995C28.1116 17.6862 27.9477 17.5551 27.9096 17.3747C27.4746 15.4624 26.4228 14.8507 23.5644 14.8507C20.3649 14.8507 19.9927 15.9569 19.9927 16.7868C19.9927 17.7927 20.4313 18.0867 24.7482 18.6543C29.0234 19.2175 31.0533 20.0131 31.0533 22.9973C31.0533 26.0054 28.5254 27.7311 24.1182 27.7311" fill="#21A366"/>
</svg>
