<svg width="40" height="40" viewBox="0 0 40 40" fill="none" xmlns="http://www.w3.org/2000/svg">
<path d="M20.2893 2.00007C18.8297 2.00476 17.8178 2.13336 16.5947 2.34457C12.9827 2.97348 12.3247 4.29421 12.3247 6.72821V10.4482H20.7727V12.3256H12.0037H7.92055C5.44625 12.3256 3.28076 13.4914 2.5946 16.2859C1.81926 19.4934 1.78453 21.5021 2.5946 24.8514C3.20942 27.3492 4.5639 29.2219 7.03915 29.2219H10.4484V24.4308C10.4484 21.6467 12.9696 18.8964 15.8588 18.8964H22.6509C25.0192 18.8964 27.3442 17.1485 27.3442 14.7877V6.72821C27.3442 4.43877 25.6931 2.72661 23.385 2.34269C23.4422 2.33706 21.7367 1.99444 20.2893 2.00007ZM15.611 5.7548C16.3816 5.7548 17.019 6.39029 17.019 7.1647C17.019 7.94662 16.3816 8.57085 15.611 8.57085C14.8253 8.57085 14.203 7.94756 14.203 7.1647C14.203 6.3931 14.8253 5.7548 15.611 5.7548Z" fill="url(#paint0_linear_107_2)"/>
<path d="M19.3797 37.6699C20.8393 37.6652 21.8512 37.5366 23.0742 37.3254C26.6862 36.6965 27.3442 35.3758 27.3442 32.9418V29.2218H18.8963V27.3444H27.6662H31.7493C34.2237 27.3444 36.3891 26.1786 37.0753 23.3841C37.8506 20.1766 37.8854 18.1678 37.0753 14.8186C36.4595 12.3208 35.1051 10.4481 32.6298 10.4481H29.2206V15.2392C29.2206 18.0233 26.6994 20.7736 23.8102 20.7736H17.018C14.6498 20.7736 12.3247 22.5215 12.3247 24.8822V32.9418C12.3247 35.2312 13.9758 36.9434 16.284 37.3273C16.2267 37.3329 17.9323 37.6755 19.3797 37.6699ZM24.0589 33.9152C23.2883 33.9152 22.6509 33.2797 22.6509 32.5053C22.6509 31.7234 23.2883 31.0991 24.0589 31.0991C24.8446 31.0991 25.4669 31.7224 25.4669 32.5053C25.4669 33.2769 24.8436 33.9152 24.0589 33.9152Z" fill="url(#paint1_linear_107_2)"/>
<defs>
<linearGradient id="paint0_linear_107_2" x1="7.53382" y1="9.48325" x2="22.4175" y2="21.9721" gradientUnits="userSpaceOnUse">
<stop stop-color="#26ABE7"/>
<stop offset="1" stop-color="#086DBF"/>
</linearGradient>
<linearGradient id="paint1_linear_107_2" x1="30.8839" y1="32.893" x2="19.7914" y2="17.0511" gradientUnits="userSpaceOnUse">
<stop stop-color="#FEB705"/>
<stop offset="1" stop-color="#FFDA1C"/>
</linearGradient>
</defs>
</svg>
