<svg width="44" height="40" viewBox="0 0 44 40" fill="none" xmlns="http://www.w3.org/2000/svg">
<g clip-path="url(#clip0_74_6)">
<path d="M22.0103 16.0612C22.7658 16.0613 23.5044 16.2883 24.1331 16.7136C24.7617 17.1389 25.2524 17.7435 25.5433 18.4513C25.8342 19.1591 25.9124 19.9385 25.7679 20.6913C25.6234 21.4441 25.2628 22.1367 24.7314 22.6818C24.2001 23.227 23.5217 23.6004 22.7817 23.755C22.0418 23.9096 21.2733 23.8386 20.573 23.5507C19.8728 23.2629 19.2721 22.7712 18.8465 22.1375C18.4209 21.5038 18.1895 20.7565 18.1815 19.9896C18.1761 18.9532 18.5765 17.9571 19.2946 17.2204C20.0126 16.4837 20.9895 16.0668 22.0103 16.0612ZM12.5305 36.6182C13.8204 37.408 16.6254 36.2024 19.9014 33.0845C18.8065 31.8214 17.7746 30.5034 16.8098 29.1354C15.1583 28.9475 13.518 28.67 11.8958 28.3039C10.8515 32.752 11.2407 35.8075 12.5305 36.6182ZM13.9841 24.6871L13.3905 23.6271C13.159 24.2109 12.9606 24.8078 12.7965 25.4147C13.3494 25.5394 13.9636 25.6434 14.5983 25.7473L13.9841 24.6871ZM27.3746 23.1074L29.033 19.9896L27.3746 16.8717C26.7604 15.7702 26.1052 14.7933 25.5114 13.8164C24.4057 13.7539 23.2388 13.7539 22.0103 13.7539H18.509C17.9153 14.731 17.2601 15.7079 16.6459 16.8094L14.9875 19.9896L16.6459 23.1074C17.2601 24.2091 17.9153 25.186 18.509 26.1629H25.5114C26.1052 25.186 26.7604 24.2091 27.3746 23.1074ZM22.0103 9.13962C21.6212 9.5968 21.2117 10.075 20.8023 10.636H23.2181C22.8087 10.075 22.3993 9.5968 22.0103 9.13962ZM22.0103 30.8397C22.3993 30.3825 22.8087 29.9044 23.2181 29.3431H20.8023C21.2117 29.9044 21.6212 30.3825 22.0103 30.8397ZM31.4695 3.36111C30.2001 2.57137 27.3746 3.77674 24.119 6.89482C25.214 8.15786 26.2459 9.47589 27.2107 10.8439C28.8607 11.0043 30.501 11.254 32.1246 11.5921C33.169 7.14406 32.78 4.08853 31.4695 3.27802M30.0364 15.2089L30.6302 16.2689C30.8616 15.6851 31.0598 15.0884 31.2237 14.4815C30.6711 14.3567 30.0568 14.2528 29.4221 14.1489L30.0364 15.2089ZM33.0051 0.658896C36.0149 2.40498 36.3425 6.99867 35.0526 12.3613C40.2532 13.9202 44 16.5184 44 20.0103C44 23.5025 40.2532 26.1006 35.0526 27.6595C36.322 33.0222 35.9944 37.6159 33.0051 39.3617C30.0159 41.1078 25.9413 39.1125 22.0103 35.3085C18.0792 39.1125 14.0045 41.1078 10.9949 39.3617C7.98512 37.6159 7.678 33.1261 8.9474 27.6595C3.74682 26.1006 0 23.5025 0 20.0103C0 16.5184 3.74682 13.8995 8.9474 12.3406C7.678 6.9779 8.00558 2.38421 10.9949 0.638125C13.9841 -1.10774 18.0792 0.887598 22.0103 4.69133C25.9413 0.887821 30.0159 -1.10774 33.0051 0.638125M32.4113 19.9896C33.1225 21.5196 33.7513 23.0878 34.2949 24.6871C38.5946 23.3776 41.0106 21.5069 41.0106 19.9896C41.0106 18.4724 38.5332 16.6017 34.2949 15.292C33.7513 16.8913 33.1225 18.4595 32.4113 19.9896ZM11.6092 19.9896C10.8981 18.4594 10.2693 16.8913 9.72554 15.292C5.42586 16.6017 3.00982 18.4724 3.00982 19.9896C3.00982 21.5069 5.48702 23.3776 9.72554 24.6871C10.2693 23.0878 10.8981 21.5197 11.6092 19.9896ZM30.0364 24.6871L29.4221 25.7473C30.0568 25.7473 30.6711 25.5394 31.2237 25.4147C31.0598 24.8078 30.8616 24.2109 30.6302 23.6271L30.0364 24.6871ZM24.0577 33.0845C27.3132 36.2024 30.2001 37.408 31.4081 36.6182C32.6161 35.8283 33.1076 32.8353 32.0632 28.3039C30.4396 28.6421 28.7993 28.8919 27.1493 29.0521C26.1868 30.4486 25.1549 31.7945 24.0577 33.0845ZM13.9841 15.292L14.5983 14.232C13.9636 14.232 13.3494 14.44 12.7965 14.5646C12.9607 15.1715 13.159 15.7684 13.3905 16.3522L13.9841 15.292ZM19.9628 6.89482C16.6459 3.77697 13.8204 2.57137 12.5305 3.36111C11.2407 4.15106 10.8515 7.14406 11.8958 11.6754C13.5195 11.3373 15.1598 11.0875 16.8098 10.9272C17.7923 9.5293 18.8447 8.18355 19.9628 6.89482Z" fill="#00D8FF"/>
</g>
<defs>
<clipPath id="clip0_74_6">
<rect width="44" height="40" fill="white"/>
</clipPath>
</defs>
</svg>
