<svg width="40" height="40" viewBox="0 0 40 40" fill="none" xmlns="http://www.w3.org/2000/svg">
<g clip-path="url(#clip0_183_13)">
<g clip-path="url(#clip1_183_13)">
<path d="M24.6553 24.7804L23.8928 26.2634C23.7799 26.4828 23.6174 26.665 23.4216 26.7918C23.2259 26.9185 23.0037 26.9852 22.7776 26.9853H16.9363C16.7102 26.9852 16.4881 26.9185 16.2923 26.7918C16.0965 26.665 15.934 26.4828 15.8211 26.2634L15.0585 24.7804H24.6553ZM26.7899 20.6291L25.4455 23.2437H14.2685L12.924 20.6291H26.7899ZM25.4949 16.5696L26.7921 19.0924H12.9219L14.2191 16.5696H25.4949ZM22.7775 12.7321C23.0036 12.732 23.2258 12.7988 23.4216 12.9255C23.6174 13.0522 23.7799 13.2345 23.8928 13.454L24.7046 15.0329H15.0093L15.8213 13.454C15.9342 13.2345 16.0967 13.0523 16.2924 12.9255C16.4882 12.7988 16.7103 12.7321 16.9365 12.7321H22.7775Z" fill="#00435B"/>
<path d="M8.4353 12.0439C7.78825 8.52978 7.64927 5.83448 8.0676 3.87743C8.31636 2.71343 8.77101 1.76387 9.46263 1.07865C10.1928 0.355347 11.1157 0.000390543 12.153 0.000390543C13.8639 0.000390543 15.6626 0.874304 17.5847 2.5343C18.3688 3.21152 19.1825 4.02769 20.0275 4.98335C20.0949 4.88648 20.1709 4.795 20.2556 4.7103C22.6448 2.32596 24.6563 0.844217 26.3768 0.273086C27.3997 -0.0667399 28.3601 -0.0990877 29.2347 0.230651C30.158 0.578477 30.8935 1.29796 31.4126 2.30543C32.2691 3.96822 32.4949 6.15309 32.1757 8.851C32.0455 9.95065 31.823 11.1484 31.5086 12.4463C31.6272 12.4623 31.7462 12.4919 31.8639 12.5355C34.8951 13.6607 37.0417 14.8705 38.3412 16.2533C39.1145 17.0759 39.6193 17.9917 39.8019 19.0056C39.9945 20.0757 39.8066 21.1489 39.2883 22.1557C38.4333 23.8162 36.8612 25.1256 34.6218 26.1628C33.7227 26.5793 32.7052 26.9566 31.5684 27.2959C31.6202 27.427 31.6606 27.5663 31.6875 27.7124C32.3345 31.2265 32.4733 33.9218 32.0552 35.8788C31.8064 37.0428 31.3516 37.9924 30.66 38.6776C29.93 39.4009 29.0069 39.7559 27.9698 39.7559C26.2587 39.7559 24.4601 38.882 22.5381 37.222C21.7455 36.5374 20.9229 35.7112 20.0681 34.7423C19.9781 34.8999 19.8692 35.0428 19.7445 35.167C17.3553 37.5517 15.3438 39.0331 13.6233 39.6044C12.6004 39.9442 11.64 39.9766 10.7654 39.6468C9.84213 39.299 9.10657 38.5795 8.58747 37.572C7.73095 35.9093 7.50518 33.7244 7.82443 31.0265C7.95937 29.8872 8.19337 28.6423 8.52598 27.29C8.3934 27.2749 8.2627 27.2436 8.13623 27.1966C5.10502 26.0713 2.95844 24.8616 1.6589 23.4788C0.88561 22.6562 0.380797 21.7404 0.198188 20.7265C0.00564132 19.6564 0.19353 18.583 0.711852 17.5762C1.56682 15.9159 3.13887 14.6063 5.37831 13.5693C6.30424 13.1402 7.35564 12.7531 8.53359 12.406C8.4911 12.2888 8.4582 12.1676 8.4353 12.0439Z" fill="#002B3B"/>
<path d="M29.5726 28.058C29.7172 28.0293 29.8662 28.064 29.9887 28.155C30.1111 28.246 30.1976 28.3862 30.2302 28.5467L30.2337 28.5661L30.2659 28.7531C31.3078 34.8882 30.5739 37.9557 28.064 37.9557C25.6085 37.9557 22.4827 35.3381 18.6864 30.103C18.6189 30.01 18.5761 29.8976 18.5629 29.7787C18.5496 29.6598 18.5664 29.5391 18.6113 29.4303C18.6562 29.3215 18.7275 29.229 18.817 29.1633C18.9065 29.0976 19.0106 29.0614 19.1176 29.0587H19.1353L19.3353 29.0602C20.9328 29.07 22.4858 29.0076 23.9943 28.8731C25.7748 28.7143 27.6343 28.4426 29.5726 28.058ZM12.3364 23.4204L12.346 23.4387L12.4463 23.6347C13.2501 25.1999 14.0876 26.6855 14.9587 28.0915C15.9848 29.7472 17.1386 31.4234 18.4199 33.1201C18.515 33.246 18.5631 33.4081 18.5542 33.5727C18.5452 33.7374 18.48 33.8918 18.3719 34.0039L18.3575 34.0183L18.2286 34.1427C13.9885 38.2118 11.2326 39.0241 9.96092 36.5795C8.71609 34.187 9.16739 29.8364 11.3148 23.5279C11.3528 23.4161 11.418 23.3185 11.503 23.2461C11.588 23.1737 11.6894 23.1294 11.7957 23.1182C11.9021 23.107 12.0091 23.1294 12.1046 23.1828C12.2002 23.2362 12.2804 23.3185 12.3364 23.4204ZM31.7241 14.3675L31.7415 14.374L31.9011 14.4355C37.1348 16.4747 39.1232 18.7156 37.8664 21.1581C36.6372 23.5471 33.0636 25.2865 27.1457 26.3762C27.0384 26.396 26.9284 26.3811 26.8284 26.3334C26.7284 26.2856 26.6427 26.2069 26.5812 26.1065C26.5197 26.0061 26.485 25.8882 26.4813 25.7665C26.4775 25.6448 26.5047 25.5245 26.5598 25.4195C27.4074 23.8047 28.1709 22.1979 28.85 20.5992C29.6202 18.7861 30.3431 16.84 31.0185 14.7609C31.0676 14.6098 31.1656 14.4849 31.2931 14.411C31.4206 14.337 31.5682 14.3195 31.7067 14.3618L31.7241 14.3675ZM13.237 13.3409C13.3018 13.3835 13.3584 13.44 13.4037 13.5071C13.449 13.5743 13.482 13.6507 13.5009 13.7322C13.5198 13.8136 13.5242 13.8984 13.5138 13.9817C13.5034 14.065 13.4785 14.1453 13.4404 14.2178C12.5926 15.8325 11.8291 17.4393 11.15 19.0381C10.3799 20.8511 9.65703 22.7972 8.98157 24.8764C8.93142 25.0308 8.83023 25.1577 8.69892 25.2309C8.5676 25.3041 8.41619 25.318 8.27598 25.2698L8.25859 25.2634L8.09896 25.2016C2.86531 23.1626 0.876909 20.9217 2.13374 18.4792C3.36293 16.0902 6.93648 14.3508 12.8544 13.2609C12.9864 13.2366 13.1218 13.2649 13.237 13.3409ZM30.0392 3.29762C31.284 5.69032 30.8327 10.0409 28.6853 16.3495C28.6473 16.4612 28.5821 16.5588 28.4971 16.6312C28.4121 16.7036 28.3107 16.7479 28.2044 16.7591C28.098 16.7703 27.991 16.7479 27.8955 16.6945C27.7999 16.6411 27.7196 16.5588 27.6637 16.4569L27.6541 16.4387L27.5538 16.2427C26.7499 14.6774 25.9125 13.1918 25.0414 11.7858C24.0153 10.1301 22.8615 8.45397 21.5802 6.75728C21.4851 6.63136 21.437 6.46921 21.4459 6.30458C21.4548 6.13996 21.5201 5.98553 21.6282 5.87345L21.6426 5.85901L21.7715 5.73467C26.0116 1.66568 28.7675 0.853333 30.0392 3.29762ZM12.1507 1.8418C14.6063 1.8418 17.7321 4.4593 21.5283 9.69432C21.5957 9.78736 21.6385 9.89973 21.6518 10.0187C21.6651 10.1376 21.6483 10.2583 21.6034 10.3671C21.5585 10.4758 21.4872 10.5683 21.3977 10.634C21.3082 10.6997 21.2041 10.736 21.0971 10.7387H21.0794L20.8794 10.7373C19.282 10.7275 17.729 10.7899 16.2205 10.9244C14.4398 11.0832 12.5803 11.355 10.6421 11.7395C10.4975 11.7682 10.3485 11.7334 10.2261 11.6425C10.1037 11.5515 10.0173 11.4113 9.98467 11.2508L9.98095 11.2312L9.9488 11.0444C8.90677 4.90933 9.64073 1.8418 12.1507 1.8418Z" fill="#FF4154"/>
<path d="M17.4061 12.8121H22.3092C22.6615 12.8121 23.0075 12.9162 23.3124 13.1139C23.6172 13.3117 23.8701 13.596 24.0454 13.9382L26.5073 18.7427C26.6814 19.0824 26.773 19.4671 26.773 19.8587C26.773 20.2503 26.6814 20.6351 26.5073 20.9747L24.0454 25.7793C23.8701 26.1215 23.6172 26.4058 23.3124 26.6035C23.0075 26.8013 22.6615 26.9054 22.3092 26.9053H17.4061C16.689 26.9053 16.0268 26.4758 15.6698 25.7793L13.2081 20.9747C13.0341 20.6351 12.9425 20.2503 12.9425 19.8587C12.9425 19.4671 13.0341 19.0824 13.2081 18.7427L15.6699 13.9382C15.8453 13.596 16.0981 13.3116 16.403 13.1139C16.7079 12.9162 17.0538 12.8121 17.4061 12.8121ZM21.562 14.2622C22.2794 14.2622 22.9421 14.6923 23.2988 15.3894L25.0156 18.7438C25.1893 19.0832 25.2807 19.4675 25.2807 19.8587C25.2807 20.2499 25.1893 20.6343 25.0156 20.9737L23.2988 24.3281C23.1235 24.6706 22.8706 24.9552 22.5657 25.1531C22.2607 25.351 21.9145 25.4551 21.562 25.4551H18.1536C17.4362 25.4551 16.7735 25.0252 16.4168 24.3281L14.7 20.9737C14.5263 20.6343 14.4349 20.2499 14.4349 19.8587C14.4349 19.4675 14.5263 19.0832 14.7 18.7438L16.4168 15.3894C16.5921 15.0469 16.845 14.7623 17.1499 14.5645C17.4548 14.3666 17.801 14.2624 18.1535 14.2624L21.562 14.2622ZM20.7566 15.8483H18.9591C18.6069 15.8483 18.261 15.9523 17.9562 16.1498C17.6514 16.3474 17.3986 16.6315 17.2232 16.9735L16.316 18.7417C16.1416 19.0816 16.0499 19.4667 16.0499 19.8587C16.0499 20.2508 16.1416 20.6359 16.316 20.9758L17.2232 22.7441C17.3986 23.0861 17.6514 23.3703 17.9562 23.5678C18.261 23.7654 18.6069 23.8694 18.9591 23.8693H20.7566C21.4733 23.8693 22.1355 23.4401 22.4924 22.7441L23.3996 20.9758C23.574 20.6359 23.6658 20.2508 23.6658 19.8587C23.6658 19.4667 23.574 19.0816 23.3996 18.7417L22.4924 16.9734C22.3171 16.6313 22.0642 16.3472 21.7594 16.1497C21.4546 15.9521 21.1087 15.8483 20.7566 15.8483ZM19.9811 17.3662C20.6973 17.3662 21.3589 17.7947 21.716 18.4897L21.8448 18.7401C22.0196 19.0803 22.1117 19.466 22.1117 19.8586C22.1117 20.2511 22.0196 20.6368 21.8448 20.977L21.716 21.2274C21.5405 21.569 21.2877 21.8526 20.9832 22.0499C20.6786 22.2471 20.3329 22.351 19.9811 22.3509H19.7345C19.3827 22.351 19.0371 22.2471 18.7325 22.0499C18.4279 21.8526 18.1751 21.569 17.9996 21.2274L17.8709 20.977C17.696 20.6368 17.604 20.2511 17.604 19.8586C17.604 19.466 17.696 19.0803 17.8709 18.7401L17.9996 18.4897C18.1751 18.1482 18.4279 17.8645 18.7325 17.6673C19.0371 17.47 19.3827 17.3662 19.7345 17.3662H19.9811ZM19.8581 18.8617C19.7018 18.8617 19.5481 18.9077 19.4127 18.9952C19.2772 19.0827 19.1647 19.2085 19.0864 19.3601C19.0082 19.5117 18.9671 19.6836 18.9671 19.8586C18.9671 20.0336 19.0082 20.2055 19.0864 20.357C19.1646 20.5086 19.2771 20.6346 19.4125 20.7221C19.5479 20.8096 19.7015 20.8557 19.8579 20.8557C20.0143 20.8557 20.1679 20.8096 20.3033 20.7221C20.4387 20.6346 20.5512 20.5086 20.6294 20.357C20.7075 20.2055 20.7487 20.0336 20.7487 19.8586C20.7487 19.6836 20.7075 19.5117 20.6294 19.3601C20.5511 19.2086 20.4387 19.0828 20.3033 18.9953C20.1679 18.9078 20.0144 18.8618 19.8581 18.8617ZM12.6362 19.8586H14.2387Z" fill="#FFD94C"/>
</g>
</g>
<defs>
<clipPath id="clip0_183_13">
<rect width="40" height="40" fill="white"/>
</clipPath>
<clipPath id="clip1_183_13">
<rect width="40" height="40" fill="white"/>
</clipPath>
</defs>
</svg>
