<svg width="40" height="40" viewBox="0 0 40 40" fill="none" xmlns="http://www.w3.org/2000/svg">
<path d="M26.935 27.03C28.3163 26.8859 29.3642 25.6848 29.3166 24.2435C29.269 22.8022 28.0782 21.6492 26.6492 21.6492H26.554C25.0774 21.6972 23.9343 22.9464 23.9819 24.4357C24.0295 25.1563 24.3153 25.7809 24.744 26.2133C23.1245 29.4321 20.6477 31.7862 16.9325 33.756C14.408 35.1012 11.7883 35.5816 9.16858 35.2453C7.02517 34.9571 5.35808 33.9962 4.31019 32.4108C2.78599 30.0567 2.6431 27.5104 3.92914 24.9642C4.83414 23.1385 6.26307 21.7933 7.16807 21.1207C6.97754 20.4962 6.69175 19.4392 6.54886 18.6705C-0.35767 23.715 0.356799 30.5371 2.45257 33.756C4.02441 36.1582 7.2157 37.6475 10.7404 37.6475C11.693 37.6475 12.6457 37.5514 13.5983 37.3112C19.6951 36.1101 24.3153 32.4588 26.935 27.03Z" fill="#764ABC"/>
<path d="M35.3181 21.0733C31.6981 16.7975 26.3634 14.4434 20.2666 14.4434H19.5045C19.0759 13.5786 18.1709 13.0021 17.1706 13.0021H17.0754C15.5988 13.0501 14.4556 14.2992 14.5033 15.7886C14.5509 17.2298 15.7417 18.3829 17.1706 18.3829H17.2659C18.3138 18.3348 19.2188 17.6622 19.5998 16.7494H20.4572C24.0771 16.7494 27.5066 17.8064 30.6026 19.8722C32.9842 21.4576 34.6989 23.5235 35.6515 26.0217C36.4613 28.0395 36.4136 30.0093 35.5563 31.6908C34.2226 34.237 31.9839 35.6303 29.0308 35.6303C27.1255 35.6303 25.3156 35.0538 24.3629 34.6214C23.839 35.1018 22.8864 35.8705 22.2195 36.3509C24.2677 37.3118 26.3634 37.8403 28.364 37.8403C32.9366 37.8403 36.3184 35.294 37.6044 32.7477C38.9857 29.9612 38.8905 25.1569 35.3181 21.0733Z" fill="#764ABC"/>
<path d="M11.1212 27.8471C11.1688 29.2884 12.3596 30.4414 13.7886 30.4414H13.8838C15.3604 30.3934 16.5035 29.1442 16.4559 27.6549C16.4083 26.2136 15.2175 25.0606 13.7886 25.0606H13.6933C13.598 25.0606 13.4551 25.0606 13.3599 25.1086C11.407 21.8417 10.5973 18.2865 10.8831 14.4431C11.0736 11.5605 12.0262 9.06231 13.6933 6.99646C15.0746 5.21887 17.742 4.3541 19.5519 4.30606C24.6009 4.20997 26.7443 10.5516 26.8871 13.0979C27.5064 13.242 28.5542 13.5783 29.2687 13.8186C28.6971 6.0356 23.934 2 19.3614 2C15.0746 2 11.1212 5.12279 9.54938 9.73491C7.35834 15.8844 8.78728 21.7937 11.4546 26.4538C11.2165 26.7901 11.0736 27.3186 11.1212 27.8471Z" fill="#764ABC"/>
</svg>
