<svg width="40" height="40" viewBox="0 0 40 40" fill="none" xmlns="http://www.w3.org/2000/svg">
<path fill-rule="evenodd" clip-rule="evenodd" d="M0.380981 17.5487C0.380981 17.7684 0.445669 17.9134 0.481919 18.0544C0.718169 18.9709 1.22598 19.7575 1.82848 20.475C2.68661 21.4975 3.73754 22.3206 4.81411 23.0947C5.74786 23.7659 6.70067 24.4222 7.63817 25.0884C7.79911 25.2028 7.95129 25.3344 8.12598 25.4747C7.97567 25.5559 7.85067 25.6275 7.72067 25.6934C6.48348 26.3209 5.29317 27.0244 4.19598 27.8766C3.53473 28.3903 2.89536 28.9362 2.44379 29.6497C1.71723 30.7972 1.46004 32.0197 2.00161 33.325C2.15973 33.7062 2.40098 34.0356 2.74129 34.2791C2.85161 34.3578 2.97536 34.4359 3.10442 34.4666C3.43504 34.5444 3.77192 34.5953 4.10661 34.6569L5.05442 34.6562C6.10254 34.5628 7.05661 34.2037 7.91879 33.6087C9.26629 32.6787 10.1741 31.4319 10.5644 29.8316C10.8482 28.6684 10.8597 27.5041 10.5254 26.3462C10.4934 26.239 10.4564 26.1332 10.4147 26.0294C10.3741 25.9253 10.3263 25.8241 10.27 25.6944L12.4188 24.4587L12.451 24.4862C12.4119 24.6141 12.3704 24.7416 12.335 24.8706C12.0797 25.8031 11.91 26.7519 11.971 27.7197C12.036 28.7509 12.3238 29.7162 12.9275 30.5778C13.4157 31.2747 14.5788 31.3006 15.0975 30.6012C15.2816 30.3528 15.46 30.0931 15.5941 29.8159C15.9444 29.0925 16.2688 28.3562 16.6035 27.625L16.6619 27.4912C16.6379 27.8375 16.6097 28.1416 16.5969 28.4459C16.5769 28.9212 16.6047 29.3937 16.7672 29.8459C16.9063 30.2328 17.1429 30.5219 17.586 30.5728C17.8891 30.6075 18.1307 30.4687 18.3535 30.2928C18.6987 30.02 18.9848 29.6799 19.1944 29.2931C19.7885 28.2022 20.3985 27.1178 20.9369 25.9994C21.5194 24.7897 22.0288 23.5447 22.5697 22.3144L22.6591 22.0962C22.7869 22.5984 22.876 23.0903 23.04 23.5559C23.2307 24.0962 23.4666 24.6237 23.7235 25.1366C23.845 25.3787 23.831 25.5359 23.6625 25.7391C22.9575 26.5891 22.2647 27.4494 21.5713 28.3087C21.4179 28.4984 21.265 28.6916 21.1372 28.8987C21.0597 29.0296 21.0087 29.1744 20.9872 29.325C20.9657 29.4636 20.9987 29.6052 21.0793 29.72C21.1599 29.8348 21.2818 29.914 21.4194 29.9409C21.6973 30.0008 21.9822 30.0211 22.2657 30.0012C23.2335 29.93 24.1122 29.5903 24.8891 29.0147C25.8957 28.2691 26.2188 27.2516 25.975 26.0456C25.9091 25.7184 25.7925 25.4003 25.6791 25.085C25.6282 24.9428 25.6247 24.8431 25.7175 24.7106C26.5222 23.5616 27.2097 22.3425 27.8491 21.0953C27.8744 21.0462 27.9004 20.9972 27.9447 20.9447C28.1519 22.0228 28.4638 23.0619 29.0225 24.0047C28.7375 24.2794 28.4554 24.5284 28.2 24.8028C27.6379 25.4072 27.1504 26.0634 26.896 26.8637C26.7866 27.2087 26.7025 27.5594 26.7513 27.9278C26.8269 28.5 27.2957 28.8719 27.8585 28.7416C29.0629 28.4628 30.1025 27.8953 30.8622 26.89C31.3735 26.2131 31.42 25.4581 31.206 24.6672C31.1472 24.4522 31.0775 24.2406 31.0025 23.9941C31.2997 23.9019 31.5894 23.7912 31.8891 23.7228C33.445 23.3678 34.9841 23.4297 36.4835 23.9916C37.3588 24.3197 38.066 24.8687 38.4854 25.7325C38.9975 26.7884 38.7144 27.7903 37.7191 28.4578C37.6263 28.52 37.52 28.5691 37.4432 28.6469C37.4185 28.6754 37.4001 28.7088 37.3891 28.7448C37.3781 28.7809 37.3747 28.8188 37.3791 28.8562C37.3857 28.8947 37.4872 28.9428 37.5457 28.9422C37.8729 28.9397 38.1382 28.7681 38.3929 28.5919C39.031 28.1503 39.4966 27.5562 39.5969 26.7741L39.6166 26.7153L39.5925 26.2059C39.5829 26.1766 39.5997 26.1475 39.5975 26.1253C39.4619 24.9862 38.8535 24.1028 37.9685 23.4103C36.9435 22.6087 35.7332 22.2787 34.4532 22.2266C33.415 22.1819 32.3782 22.3415 31.4016 22.6962C31.1213 22.7978 30.8435 22.9181 30.5616 23.0316C30.5238 22.9631 30.4832 22.8975 30.4497 22.8297C30.1604 22.2372 29.8097 21.6709 29.7322 20.9916C29.6772 20.5091 29.6097 20.0272 29.7244 19.55C29.8347 19.0909 29.9785 18.6397 30.1138 18.1869C30.1835 17.9537 30.1344 17.8231 29.9119 17.7181C29.8344 17.6795 29.7516 17.6523 29.6663 17.6375C29.1194 17.5581 28.58 17.6034 28.0504 17.7575C27.8629 17.8122 27.7266 17.9172 27.685 18.1247C27.6613 18.2437 27.6129 18.3578 27.5791 18.4753C27.4407 18.9637 27.3425 19.4616 27.1188 19.9269C26.5582 21.0941 25.9182 22.2172 25.2632 23.3322C25.1922 23.4525 25.1175 23.5706 25.0282 23.7166C24.7982 23.2353 24.5529 22.8034 24.4785 22.2972C24.3944 21.7247 24.3282 21.1531 24.4707 20.585C24.5766 20.1612 24.715 19.7453 24.8425 19.3272C24.9029 19.1284 24.875 19.0241 24.695 18.9194C24.6041 18.8666 24.5013 18.8197 24.3988 18.8044C23.838 18.719 23.2651 18.7658 22.7257 18.9412C22.556 18.9962 22.4669 19.1059 22.415 19.2809C22.2625 19.7972 22.1325 20.3259 21.9185 20.8169C21.0516 22.8044 20.1597 24.7816 19.2688 26.7584C19.0829 27.1712 18.865 27.5697 18.6554 27.9716C18.6022 28.0734 18.5247 28.1631 18.4585 28.2587C18.4054 28.1959 18.3847 28.1528 18.385 28.1097C18.3866 27.8556 18.3563 27.5941 18.4047 27.3484C18.5535 26.6056 18.7179 25.8659 18.8979 25.13C19.0447 24.5219 19.2157 23.9194 19.3785 23.3153C19.4332 23.1131 19.4341 22.9241 19.2888 22.7541C19.0447 22.4694 18.5347 22.4069 18.2322 22.6262L18.0985 22.7019L18.1244 22.4862C18.1882 22.0241 18.201 21.5634 18.0741 21.1081C17.916 20.5406 17.511 20.2141 16.9222 20.2322C16.6479 20.2406 16.3597 20.2875 16.1057 20.3875C15.0372 20.8062 14.2157 21.5478 13.5163 22.44C13.4515 22.5228 13.3711 22.5923 13.2797 22.6444C12.3757 23.1456 11.4688 23.6406 10.5622 24.1375L9.55317 24.6903C9.28254 24.4322 9.03661 24.1644 8.75754 23.9372C7.90536 23.2422 7.03942 22.5644 6.18129 21.8772C5.42067 21.2681 4.68379 20.6337 4.12004 19.8272C3.70067 19.2272 3.43036 18.5706 3.40442 17.8287C3.37161 16.8834 3.63973 16.0197 4.12098 15.2156C4.73661 14.1869 5.57629 13.3612 6.49942 12.6134C7.47598 11.8228 8.53223 11.1516 9.62692 10.5387C11.1585 9.68156 12.7338 8.92281 14.4229 8.42187C16.1547 7.90812 17.9119 7.61406 19.7244 7.81906C20.4369 7.89969 21.1288 8.06281 21.7641 8.41125C22.2507 8.67781 22.6497 9.02687 22.8354 9.5725C23.0185 10.1094 23.0129 10.6534 22.886 11.1987C22.6282 12.3031 22.0235 13.2134 21.2625 14.0269C20.0144 15.3603 18.4919 16.2681 16.7779 16.8678C15.7923 17.2131 14.7669 17.4318 13.7263 17.5187C12.8735 17.5903 12.0385 17.5147 11.231 17.2181C10.6963 17.0216 10.2307 16.7209 9.85629 16.2847C9.78942 16.2066 9.70379 16.1219 9.57911 16.195C9.45692 16.2669 9.43536 16.3831 9.47629 16.5009C9.54473 16.6966 9.60786 16.9003 9.71442 17.0753C9.98223 17.5144 10.3729 17.8328 10.8029 18.1059C11.6288 18.6312 12.5519 18.8078 13.5091 18.8487C14.9616 18.9116 16.3788 18.6947 17.776 18.305C19.7707 17.7487 21.505 16.7662 22.896 15.2162C24.0541 13.9256 24.8813 12.4691 25.0585 10.7103C25.145 9.85187 25.0529 9.01094 24.651 8.22781C24.215 7.37937 23.5219 6.74844 22.6932 6.31375C21.4863 5.68094 20.1838 5.3125 18.8394 5.3125H17.4925C15.8644 5.3125 14.2904 5.77906 12.7604 6.33562C11.6022 6.75719 10.4666 7.25469 9.36411 7.80531C6.96317 9.005 4.72723 10.4516 2.89067 12.4406C1.97567 13.4316 1.20098 14.525 0.755356 15.8125C0.620858 16.1969 0.504994 16.5876 0.408169 16.9831M9.10786 28.2372C9.00379 29.6306 8.37223 30.7603 7.34004 31.6753C6.75942 32.1897 6.09348 32.5559 5.31786 32.6847C5.03661 32.7312 4.74879 32.7425 4.47598 32.6259C4.08692 32.4597 3.99973 32.1144 3.99223 31.7466C3.98067 31.1603 4.18598 30.6303 4.46754 30.1259C4.83504 29.4684 5.37379 28.9672 5.94911 28.4991C6.85536 27.7612 7.83848 27.1369 8.84536 26.5475L8.92129 26.5162C9.07692 27.0912 9.15098 27.6591 9.10786 28.2372ZM16.9697 22.1812C16.8963 22.6262 16.8044 23.0716 16.6744 23.5028C16.225 24.9956 15.6479 26.4422 15.0238 27.8694C14.9085 28.1334 14.7407 28.3744 14.5947 28.6247C14.5699 28.6632 14.5402 28.6983 14.5063 28.7291C14.3257 28.9075 14.1544 28.8981 14.0632 28.6647C13.9569 28.3934 13.8916 28.1031 13.8354 27.8159C13.7975 27.6231 13.8066 27.4206 13.7947 27.2231C13.8069 25.8187 14.2354 24.5425 14.9622 23.3544C15.2619 22.8644 15.5882 22.3975 16.0866 22.0875C16.2417 21.9911 16.4094 21.9168 16.585 21.8669C16.8507 21.7922 17.0138 21.915 16.9697 22.1812ZM22.3335 29.015L24.2613 26.7641C24.3416 27.6 22.9207 29.2687 22.3335 29.015ZM28.4907 27.5003C28.3544 27.5784 28.206 27.6347 28.0663 27.7069C27.9385 27.7731 27.8963 27.7062 27.8925 27.5962C27.8907 27.5201 27.9005 27.4441 27.9216 27.3709C28.1819 26.4528 28.661 25.6691 29.3738 25.0316L29.4238 25.0059C29.7629 25.9544 29.371 26.9959 28.4907 27.5003Z" fill="#CB6699"/>
</svg>
