<svg width="40" height="40" viewBox="0 0 40 40" fill="none" xmlns="http://www.w3.org/2000/svg">
<path d="M33.8231 7.64968C33.7994 7.44222 33.6053 7.34979 33.4609 7.34979C33.3164 7.34979 30.1482 7.11971 30.1482 7.11971C30.1482 7.11971 27.948 5.02342 27.6818 4.81596C27.4403 4.58588 26.98 4.65471 26.7871 4.70092C26.7633 4.70092 26.3031 4.83956 25.5539 5.06964C24.8046 3.01858 23.5229 1.15237 21.2257 1.15237H21.008C20.3775 0.368719 19.556 0 18.879 0C13.5592 0 10.9957 6.33606 10.198 9.56211C8.11859 10.1845 6.64287 10.5985 6.47362 10.6683C5.31265 11.0134 5.28891 11.037 5.1434 12.0733C5.02266 12.857 2 35.1364 2 35.1364L25.5291 39.33L38.2977 36.7037C38.3215 36.6575 33.8479 7.85715 33.8231 7.64968ZM24.2474 5.39116C23.6674 5.55241 22.9657 5.75988 22.2649 5.98996V5.57601C22.2649 4.3322 22.0957 3.31847 21.7809 2.51122C22.9894 2.64986 23.7396 3.91727 24.2474 5.39116ZM20.3052 2.7649C20.62 3.54855 20.8377 4.65471 20.8377 6.17481V6.40489C19.5323 6.79622 18.1535 7.18854 16.7263 7.62609C17.524 4.72353 19.0483 3.29487 20.3052 2.7649ZM18.7573 1.33624C18.9987 1.33624 19.2412 1.42866 19.4342 1.56632C17.717 2.32637 15.9038 4.23879 15.1536 8.10985C14.0174 8.45497 12.9286 8.75486 11.8894 9.07736C12.7604 6.1286 14.9369 1.33624 18.7573 1.33624Z" fill="#7CB342"/>
<path d="M33.4609 7.3037C33.3154 7.3037 30.1482 7.07362 30.1482 7.07362C30.1482 7.07362 27.948 4.97733 27.6818 4.76986C27.5837 4.67744 27.463 4.63123 27.367 4.63123L25.6013 39.3301L38.37 36.7039C38.37 36.7039 33.8964 7.85727 33.8716 7.6498C33.7746 7.44234 33.6053 7.34991 33.4609 7.3037Z" fill="#558B2F"/>
<path d="M21.002 14.3487L19.4799 18.7231C19.4799 18.7231 18.1001 18.0201 16.4593 18.0201C14.0093 18.0201 13.8907 19.493 13.8907 19.8558C13.8907 21.8499 19.3612 22.6207 19.3612 27.3118C19.3612 31.0059 16.9113 33.3854 13.6048 33.3854C9.60899 33.3854 7.61108 31.0285 7.61108 31.0285L8.68124 27.6746C8.68124 27.6746 10.7741 29.3973 12.5346 29.3973C13.6997 29.3973 14.1755 28.536 14.1755 27.9018C14.1755 25.2952 9.70393 25.1821 9.70393 20.8764C9.70393 17.2728 12.416 13.7833 17.9102 13.7833C19.9546 13.7597 21.002 14.3487 21.002 14.3487Z" fill="white"/>
</svg>
