<svg width="40" height="40" viewBox="0 0 40 40" fill="none" xmlns="http://www.w3.org/2000/svg">
<g clip-path="url(#clip0_74_11)">
<path d="M5.18775 36.7805L3.95127 3.83363C3.91043 2.74553 4.74475 1.82337 5.8315 1.75545L33.8551 0.00397624C34.9613 -0.0651601 35.914 0.775531 35.9832 1.88171C35.9858 1.92339 35.9871 1.96514 35.9871 2.0069V37.9083C35.9871 39.0166 35.0886 39.9151 33.9803 39.9151C33.9502 39.9151 33.9202 39.9144 33.8902 39.9131L7.10313 38.71C6.05988 38.6632 5.22692 37.824 5.18775 36.7805Z" fill="#FF4785"/>
<mask id="mask0_74_11" style="mask-type:luminance" maskUnits="userSpaceOnUse" x="3" y="0" width="33" height="40">
<path d="M5.18775 36.7805L3.95127 3.83363C3.91043 2.74553 4.74475 1.82337 5.8315 1.75545L33.8551 0.00397624C34.9613 -0.0651601 35.914 0.775531 35.9832 1.88171C35.9858 1.92339 35.9871 1.96514 35.9871 2.0069V37.9083C35.9871 39.0166 35.0886 39.9151 33.9803 39.9151C33.9502 39.9151 33.9202 39.9144 33.8902 39.9131L7.10313 38.71C6.05988 38.6632 5.22692 37.824 5.18775 36.7805Z" fill="white"/>
</mask>
<g mask="url(#mask0_74_11)">
<path d="M27.6069 4.9062L27.7983 0.302381L31.6468 0L31.8126 4.74776C31.8184 4.913 31.6891 5.05162 31.5239 5.05739C31.4531 5.05986 31.3838 5.03718 31.3282 4.99337L29.8441 3.82425L28.087 5.15715C27.9552 5.25707 27.7675 5.23129 27.6675 5.09956C27.6255 5.04411 27.604 4.97574 27.6069 4.9062ZM22.6851 15.0446C22.6851 15.8253 27.9443 15.4511 28.6503 14.9027C28.6503 9.5858 25.7974 6.79187 20.5732 6.79187C15.349 6.79187 12.422 9.62927 12.422 13.8854C12.422 21.2981 22.4257 21.44 22.4257 25.4833C22.4257 26.6183 21.87 27.2921 20.6473 27.2921C19.0541 27.2921 18.4243 26.4785 18.4984 23.712C18.4984 23.1119 12.422 22.9248 12.2368 23.712C11.765 30.4162 15.9418 32.3499 20.7214 32.3499C25.3528 32.3499 28.9837 29.8813 28.9837 25.4124C28.9837 17.4676 18.8318 17.6804 18.8318 13.7435C18.8318 12.1475 20.0174 11.9347 20.7214 11.9347C21.4624 11.9347 22.7962 12.0653 22.6851 15.0446Z" fill="white"/>
</g>
</g>
<defs>
<clipPath id="clip0_74_11">
<rect width="40" height="40" fill="white"/>
</clipPath>
</defs>
</svg>
