<svg width="40" height="40" viewBox="0 0 40 40" fill="none" xmlns="http://www.w3.org/2000/svg">
<g clip-path="url(#clip0_175_34)">
<path d="M0 13.8667C0 7.32986 1.33514e-06 4.06146 2.0308 2.03072C4.0614 0 7.3298 0 13.8666 0H26.1334C32.6702 0 35.9386 0 37.9692 2.03072C40 4.06146 40 7.32986 40 13.8667V26.1334C40 32.6702 40 35.9386 37.9692 37.9692C35.9386 40 32.6702 40 26.1334 40H13.8666C7.3298 40 4.0614 40 2.0308 37.9692C1.33514e-06 35.9386 0 32.6702 0 26.1334V13.8667Z" fill="#4945FF"/>
<path fill-rule="evenodd" clip-rule="evenodd" d="M27.6 12.1333H14.1334V19H21V25.8666H27.8668V12.4C27.8668 12.2527 27.7474 12.1333 27.6 12.1333Z" fill="white"/>
<path d="M20.9999 19H20.7333V19.2667H20.9999V19Z" fill="white"/>
<path d="M14.1332 19H20.7332C20.8804 19 20.9998 19.1194 20.9998 19.2667V25.8666H14.3998C14.2526 25.8666 14.1332 25.7472 14.1332 25.6V19Z" fill="#9593FF"/>
<path d="M21 25.8666H27.8666L21.2276 32.5056C21.1436 32.5896 21 32.5302 21 32.4114V25.8666Z" fill="#9593FF"/>
<path d="M14.1331 19H7.58826C7.46946 19 7.41006 18.8563 7.49406 18.7724L14.1331 12.1333V19Z" fill="#9593FF"/>
</g>
<defs>
<clipPath id="clip0_175_34">
<rect width="40" height="40" fill="white"/>
</clipPath>
</defs>
</svg>
