<svg width="40" height="40" viewBox="0 0 40 40" fill="none" xmlns="http://www.w3.org/2000/svg">
<g clip-path="url(#clip0_74_123)">
<path d="M20 8.0033C14.6667 8.0033 11.3333 10.6691 10 16.0008C12 13.335 14.3333 12.3358 17 13.0016C18.5217 13.3816 19.6092 14.4858 20.8133 15.7075C22.7733 17.6966 25.0425 20 30 20C35.3333 20 38.6667 17.3341 40 12.0016C38 14.6675 35.6667 15.6675 33 15.0016C31.4792 14.6216 30.3917 13.5175 29.1875 12.2958C27.2267 10.3058 24.9567 8.0033 20 8.0033ZM10 20C4.66667 20 1.33333 22.6658 0 27.9983C2 25.3325 4.33333 24.3325 7 24.9991C8.52083 25.38 9.60833 26.4833 10.8125 27.7041C12.7733 29.6941 15.0433 31.9975 20 31.9975C25.3333 31.9975 28.6667 29.3316 30 23.9991C28 26.665 25.6667 27.665 23 26.9983C21.4783 26.6183 20.3908 25.5141 19.1867 24.2933C17.2267 22.3033 14.9575 20 10 20Z" fill="#00ACC1"/>
</g>
<defs>
<clipPath id="clip0_74_123">
<rect width="40" height="40" fill="white"/>
</clipPath>
</defs>
</svg>
