<svg width="40" height="40" viewBox="0 0 40 40" fill="none" xmlns="http://www.w3.org/2000/svg">
<path d="M37 3H3V37H37V3Z" fill="#1976D2"/>
<path d="M23.2961 18.1112H10.7699V21.1939H15.2626V35.1112H18.8222V21.1939H23.2961V18.1112Z" fill="white"/>
<path d="M34.3498 21.9683C34.3498 21.9683 32.6621 20.8425 30.7543 20.8425C28.8465 20.8425 28.1599 21.7492 28.1599 22.7182C28.1599 25.2191 35.1308 24.9688 35.1308 30.0017C35.1308 37.7547 24.5021 34.316 24.5021 34.316V30.5967C24.5021 30.5967 26.5345 32.1286 28.9721 32.1286C31.4097 32.1286 31.3172 30.5344 31.3172 30.3153C31.3172 28.0023 24.4086 28.0023 24.4086 22.875C24.4086 15.904 34.4745 18.6542 34.4745 18.6542L34.3498 21.9683Z" fill="white"/>
</svg>
